<mxfile host="app.diagrams.net" modified="2021-12-02T03:58:14.824Z" agent="5.0 (X11; Linux x86_64) AppleWebKit/537.36 (KHTML, like Gecko) Chrome/96.0.4664.45 Safari/537.36" etag="roXRkOQRF4-BC3UUHx23" version="15.8.8" type="github">
  <diagram id="YV6Tjz9voUqsRZARfZYo" name="Page-1">
    <mxGraphModel dx="1350" dy="805" grid="1" gridSize="10" guides="1" tooltips="1" connect="1" arrows="1" fold="1" page="1" pageScale="1" pageWidth="827" pageHeight="1169" math="0" shadow="0">
      <root>
        <mxCell id="0" />
        <mxCell id="1" parent="0" />
        <mxCell id="-npxzwWGZGb4DwovneL7-1" value="" style="shape=image;verticalLabelPosition=bottom;labelBackgroundColor=#ffffff;verticalAlign=top;aspect=fixed;imageAspect=0;image=data:image/png,iVBORw0KGgoAAAANSUhEUgAAAZUAAAD0CAIAAADc5iwnAAAACXBIWXMAAB2HAAAdhwGP5fFlAAAgAElEQVR4nOx92ZIcN5ItEBGZtbJIamlJ3X27x6zNxmxm/v835mnmtacXa0kUWawt18qMwH1w4ejAHUBGZlWRRUp4IKMiEYDD4X7g7tj8//3f/znnfEzOJPvSvmnbNvtt/cMQwpjM8jCGjDH1eu/bth354fhiK7/ah73IaJrGfqvy1Dm5VyoVpSodhqFUwvh+qXwYQhjTqGy2kiRnP0dOKWdMpdnC7YeP2ClZxSmRcVi99sORkpDNNvLb7JsxRaGzuvrHHytZ8HoIfn0q6fNr0UdJVr0fEUpcinpPUX62RvucJeNgGC0NSNnBUoH+YTWWkuq4EgFSy3PErw8MXuPHikcsLYTQ973K0zSNWFvPP0GAPnrK2l9PV/gHyFb/nAs5zBQaD3OPrnc7OaDKz4qZvBRYeBz8OkyGKnnqzlf2zfihYIydbEFTDVDya0UOYAVgDFGZs111sPGffX+YcT4yjeni8eUrSX2I/2irrnTxzkpHkrEzz/hs9W9BJB6apqn0RcUx3MkiGU0VYjZNky2hXtReaadoQaE6bvzI+JdNdkwYU1TFjR9Z73iq+KUYPhY+VDYFWEoOSkGoCkjVaxTJKEX9+CFro40cQj68i3rwUH8wcEhPWf+xPn6Mp3ak7ZktamQzWTXkX5FGPN/f3y+Xy9Vq5b0/Pz8/Pj6uWO6lKiDhlcGYISw7xI4c/kcOSD4m/rAitJ39wJa4s1ZbTQXFdqa6nj88QZrrRNb7yf65r/XEtUMuGadsBpcL51ti6jWqdPBo+YiGyUPIOLj8h+DjyBoPaBRDbchNLwiIbDab2Wx2e3vbNE3btl3XdV03HpGBRHV0ULaetVgr6TDbv2TTlDDhcfzHrNUwxnnODm7ZDz+84TA+7QteFZFCS/mZE4/DB9DJZWatkmzKSu1T6/+Y9NSo95BUanu975jVbBZBwDiDDHiMMm6cbLDEqurqBI+0nQ9OJUu5ZDs/Pn6N9wf3cnCySLcflU+ZxmOB/aRkTLFpbF0JTiW2j2TamKHyMIvvU0/jnY/HqqjkY9rwq/e+6zqZ89lXF6RAkF1CVXYLGEyzlD9F2qlWjxm/B0yONzIP7vjnA14sBPt+guQpzG9z4tfSUDnezLF2+JjOOtj+2ou23xKSsrzsr03TdF03mUzEfxQI25erAmE+RlSzFW23W8GvCkp+RGV8kvnHkiqqEON4A/uTML4e/nnF9lQQlmXRSMfBugNPZ3/9SsArix2ll9nPS1+VIIyX2sggJNOClXXFKoUQ+r4fhqFt29JS6r7v7+/vN5uNc24ymYi5p4z9j9ubncvN1yDtBRPKCR8DQ9l0cHBnZE50fJbgSjkjxbFUQp1C7z3HtpS1xRXxBDZnGGNGVUIJIHKM4Vapi3Nm1emJvFHFt51ljrQoKyERW7t6Y5FoXxPGp1HRYRhEesXs8jH4hZ7l5oucbLfb7XbrnJtMJpPJBGSs1+v5fL7ZbI6Ojs7Pz7vuZyjgGMVms1ksFuv1umma09NTycOzlpJkQl+gDTadGpU54saKxjKZNQPZe0WSpoUQupHj9r5p5MCLqnfaICpZxSjJ68gCrRu4E5tKTt9hSQUj6kqedQN3VpHNZhHtIUbTyEGLW1dCzGxpT5fq49bBEGZLrmO3ssWcEQxAhkBYdhU04CCEcH9/f3t7u91uT05OXr16JTaUGFZXV1eLxeLk5MQ5d35+DlAYhmGz2Ui2+Xw+n88F+05PT5umub+/FxgVAMW4i2/7vvfRw3XG8VKGQsloAApnzT2hcLPZ7Oc/jhx1md17lT/+q/GFjxztGTIOMwce8q1KdQjjZRaoegyEWWlw1Z2M+6ZH5MCnmEoD3ngtgAlpXyqRQNg+W7i8b5pGVoq9f/9+uVzKMrGzszPBqfV6fXd3d3V1dXR0JIVMJhPxKIdhWK/XElZbrVbL5VKcTcm2Xq83m03bttPpdDKZMNlS3f39fdM0WJLGdhZyKiFBzuVyuV6vt9ttiIE5oGqIcw4isbL8be/41xjn4oDS2OoZowAjrYYDclqSOMNOwj5Ayg5WpcHfvnkIOn/ID38lCfxRgmqNDn5fQi5l2AoSzefzxWLRdV3f92wlbTab+Xy+XC5lHkAyOOfatl2v1/KwXC4F1Lbb7XK5dM7d3t6uVquu605OTk5OTqbT6dHRkaw+kzzz+Vxiaqenp977zWYDa1HwyHqggn3L5fLdu3fv379frVZi4skchcwhCM3yr3NutVqt1+tntP9xX70a6apkc9YJYMv2gFQSrMNKG5nGjCsVT21nGoOP9ffPPH0wsksV1bsG/pTbtUoJw7Ag1P39vcAHzDHBFAEFeRAAcs5tt9vpdHp2dibe2Xa7lfzDMEggbLPZ3N7e3t/fd113dnZ2fn7+4sULWHDy69XV1WQymU6nFxcXzjmxyATvOGbH7k7f94vF4vr6+u9///tPP/20XC7FyZBJg81mM8QkECYedHgO509Y42hfuNkrZ116Rlp/n1NSDA+5OSyrMCW3xRZeqvfZwtyTElaxm/ghy0mGsFLhwKntdrvZbNbrtXhk4jC+e/duMpm0bRtCkOC9ROi7rhNkGYZB/L6+78WYGoZhOp1uNpu7u7vlcrlYLBaLxXa77bru9PT04uJiGIbT01Oxhq6vr9+8eXN9fS21vHz5sm1biaAdHx9jh4B4iHA27+/v5/P51dXV9fX15eXlfD6H/8hwLJKJ+QFp78fHr8PSyKiWzfkZwNOH1/wSt+3LZ4tKn00K6eye+kmS2E3r9XqxWNzd3d3d3Yl3dn19fXx8fHp6Kh6ihJDm87lMLx4fHwu0LZfL7XYr/iC7bFKagFrXddvtVuJck8lkNpsJAN3e3i6XS/Erv/vuu6OjI/EoBQdlNcbNzY2g6mKxWC6X9/f3s9lsNpvJrxg+BapCCFje4eOpeU3TCG2/rJ8YybvsNtGRUjtyfLa6kQ1FjcSvUvl12jiIUMqTJWNkjVmrs1KUyj+m7cqS2jny75uyjRozG1CiRMUf3biFadnYUPbbh9j19W/lE1mmYH8Sq8FF+4jL5GCW+FDL5bJt27Ozs6OjIxcFo+/79+/fv337tm3br776Sqye+/t7WRuxWCwk2NR1HQJe19fXb9++vb6+vrq6ms1m4kIiVrXdbsViWq1WzjnJLxORglbinYkhhqC+OKRYLSFw9ubNm67rVqvVYrEQ9JGvvv/++8ViIXMC2+32+Pj4/PzcOScwulqt4KKiRp6YCpSYezDKhJPdTqNUJTv5NT7thTgf16FToxwexpghtqh9ay9p4APTwfZRCW52LkiujE9jqhiTuAtCYd72KerdWTg0S7w5F1dIebNCTd6v1+vb29vb21vJg1CRc261Wr179+7777+fTqfT6fTk5CSEgNjWbDaTbPJ+Npv9+OOPl5eXl5eXYtQIzEmYCfEveS/Q0DSN5HRk9Qh+IUYmOeG+iXUmU43OOXFXhYy2bVerVQhhtVqJuSSrZCeTifdevEWhB3W58mokoDy4hyMMmqbpdg6YI42mw8yQSjZI5MiiHmh/qfQUfhCPLaXy8T4LYVmrcK808sOdI81Iw3N8jXvl/FRSiOtdRP9lKYBMw7loYmCVqQSwr6+vQwinp6dHR0dHR0fiKImrNZvNptOpTCYKEEggSdzA9Xp9enoaQnj37t3f//736+trCVQ5sgGBm2ITwZJyzq1WK8EvZcOKzSVwg0ax2ciIDJ0VoJQlF4H2WgIQAwXvxwz/bEzwzs1uL3N9ZzUHJK40qycja3xc6T/YVHnqVGnmGG/rsEqzY1jWEh8/RJUg8inYXqLqEevKsgLaK5Edcaxk2RQgTEBEVmPd3Nzc3NyEEG5vb8/OzuRUHHwu6fLy0jnXtq04m4IUwzBcXV1Np9O+79+9e/fDDz/Ioi1sM4IDGOK2IbaknHOCaAxJLkU6a1Ww/4uK2OnDulbYWfx5FsLwE+yyQAf2qeQYv7Ke2s5xuNJ/j5LGOGiHlVlPTwpezxMZK2m8FTwyZYUN78cbd88nVVghMSk5a1BMEphgfd/LWqfVanV7ezubzSR2fnV1JQtNu64TaFutVhK06vtejv2SILoE5tfrtQwnMlF4d3cn4NW2rfLREGliCtmlZVgJcaUYTB5lbTCUqJ+w1kz1Zh1kFH7Jn1IUG30yYeqU/ZUtlzNUxrGdolzCx6wZxe/HFF4n7wAyvAlSZKuwLBpP506zudTwiubXM5dE57C+K+Ws06AG8HqGnQnZWGyyJRzcdje6+VlWhxAEdyTK3jSN7MXx3osndXl5KYbV3d2dmFSy0OH4+Ljv+67rFovF5eXlzc2NLIUXOHPOSZhf/Edx1sRRxf4etdQA9AAXSm/sfqCBTqpAUQIlTUyqCthf2GZkBye8LDE5iw+elonU/EcGY9tD/El2R4vKGXIe2ZiBPfvh+KJGkqFeIlrBhVu7oGQsHGA+lKiq6KGyxp1BBCUZJTpLQwWXNrJDVS2HIXup5Gx+bhpzTJFhKSn1nUqloVTxlvMgXi4itFwub29vZRehjwdFyCTger3+4Ycf1uu1916CXPP5XP6cTCaLxUKm+WSjoizjEodOCsciL15zIOaJc078PrHCmA9MsDBBPMdsR2DhKDJzHN3HyDp/ogDRgpcFO5WZC0FzkGTrkny7A79cKoJKCCqSOkYySsJdx6Yxkl2hs1KvSnZn7BiN9YXz6W1RXBobDjtJHdIjWFkCcAYAew2QYPmJVR2yYgtUJGUbXgcFKx7j+64uG1k8qpe5M3+pXrXiIcTpfLhvgzkR9/b29ubmZhgG2R4oqzpXq5Ushjo6OhIgE/T58ccfZRYPnqAspHj79q3MRQquiVWlFEHWK0BQGSmANc4c02ohHvlVdzNgcdVscIV0coApkWfwJ1udKjmruXxSEMw9wfEEv5RXXO9yaxrYX0eOonulJyr2sJSF6fGqxfJk+ckahV2sLJRyMJNoEeaS2raV8R+SBzPexVACJHKI57EwLvBgCOHLzlPbtleGtGyqyEn28zq61Sva9xNJDE8hBMSPcJiMzPFh/fpsNvvHP/5xeXmJPGJ/yVkOfNagFCU/+ehOCtaIaYbuQ/hctQhjlTPIzl3Jb9TnqkyFaz6G6tRwqAbpnWsY5EMGMiRLapYqIJePDp9wr7b+fucYaIFcVZlF03oVzwqbDs42crR3u4aBktTK9Q2yPlAmquR9E49Mmc/n3vuzszNZEyTyJ9Hi+/v7yWRyfHws0s9b0kbSUGn4wWlnaQcjV6n8MUWxzeLjYgIJNp2cnHjvcdyCmFSr1ert27f/+te/3r9/7+KYIXYWVlpJmfDL5KcQpwXRiYqMLNwAWVx15MiyzlM4vMR8tr8YKNn4cgYZXQ4ckUFZWwpkh3TFNf8rSBridOTPo8heyuMKIZKDpapUxWGlfZSkRoyRrLD9bUce1a/4ZLvd3t7e/vjjj7e3t6enp69fv3716tV0OhVRuL+/l31kfd9/8cUXX3755WQywRKk29vb9Xoty7ubplmv14ieyL9HR0cnJydd14XUwVROcRZ2H9Jxlo1WCR9SY8nKG5lEe2XPjXhzr1+/Pj4+Fo9PIjLb7VZcRdnEByRiLeXS1GkQwC+Eq3hFAiuzapeyJIAd/FLZE1kjiMsviTSMIGTIgpeikN9nLS/E1zA36inQhnNfHbmrev92VvF24kvJ/nIjJOZg1PswaQy2loyC8Q0PFGmyGovobIimu+jJu3fv/vnPf15dXb148WK5XMopmtCx9+/fv3nzZrPZyH60k5MT8Svbtr27u9tut2IsiL3www8/3N/fi+g0TfPq1atvvvmGDxQ+rI17pWwV1ithValYDaUqDmgCEFxMVwlszedzmRncbrey4kHYu1gs3r17JwtHxSUUS8G2DsYXNBZrspxzCLrz0JVtLyMjfuWYF0w5a3aolMUgZZ0weGUHMFU4MoQ0KmrhT3HDR/8UvioahekL+XyH/aWwE++dQfdsMxTLbLYs1+pwzhypFDXyp4cnS0mlay1JlczDMMzn83fv3uEIlOl0+uLFC+/9bDa7vr5+//69HGkym80koil2lqyElJ0ll5eXsuVNzgOQuNjp6alMTs1mMylfsFKyffnll5bOA3iIpmWxQ1WxUzbGvCkxswJeaiyx2bBQS9bHX15erlaryWQi25hvbm5ms5no3nw+l8UQomB11rE1wQusYE8BvgOFKbPtwodsPfl4fmHWUGIosVRlVduiD1eHKvgZTQAMKRgZKDGCMz0KvLA382fTzDqcXIF9n+0V2xI7KTNmVs6VJVLRMAYNs6ki4vvShgJ3vsnWzrPO6tsQN83d3d19//33AkaTyeTVq1dt256fnx8dHU2nUzGgNpvN27dvOTgKx+T29vb6+hqic3FxgTPn5Cj0n3766e7ujhc6dl03nU7lYGIxInyMmDaF4zQV/UoYKtihcmbFrJJYx6w0WoGx4q3AK1uvvJHDYX766SdZOyqLG+bz+c3NjSxuENhCoN0KLdPmCLkY7Nhy4aJKPESPYE4A5YvlpfBItZSLHeIx80yh+sTl5r7ZVAypOSnmZxeTzMYOwyBzqZgTQHBD0SBbJmWvgsQZsdkbAcdf/MeK5FUUcmSCDtj3ll9caShPTpXQtp5KBY75cGSBJdqykoGEwQcnhDRxZxwmyMWLkYU/cu1CCEF2k7GlLefJicnA8+7r9fr8/Hw6na7X659++mm9Xr99+/bu7u709PTly5cCWyEEOWZTme5IFh2yXLKwYrMpkyGb87HSzvJ92Yt3JMCyAl46QqYUZXG8nQTMMoqxAzrMwU3WCNYXBa8KjivQzzCHDAPNJ2a/wq+Bjn9A6/hP772ITd/34g3AkmI8Apxhhe1AF3OofwW5ZLM6hlKsqmMe5ucfK0ZZVg4sEYNZ9FFKzMcsXB6MOM8klaSkNNQjaCIPR0dHFxcXMvlydHQk3uJ6vZ5MJi9evBiGQfyXJp7Pi2CnSJIkKR9n/jZNIwc/SZIPz87ORM6ur6+Xy6WctTKdTnG4HYtvqQmuGtHLpvGZSyMZf7hTPkspFC4HgLJ1XScMmc1m79+/b+ItGOLdOxOZrteFDLybR33LaGVbCr3ggLr1v6xR4gjCLJdQOAeknHMSP/VxHhBboDxNUAqE8bZtFIjTKQS/sNyHLUdJYqkJeMnEOqw5dgiEyAx+1aUhG1VV+T2tG2L2WRfSAhZ3Eoud5bUVkSeFuZH2ncvRZvUza5uISuBcJAnen5yc4HhfYaxYZOI/yuJGa/xbklzURjGvJNIPg1z0U0w/Ocygbdujo6Pj42M5CGE6nUJM1Qhcqm4nlxwpYQV36okNkzp2jART9UYYdXd3d319Laf3SXLOIRbjSI0h5MpiQvlZg0ApAuLuIa5gsHrnSEGyAOeMZuFhp10c4i1EDHOYBRJR4XWtEDC4EYwyGIxDPPYHQXoExWB2yZnRglySja1UT7tHM/gVKNmGOec4+I+fmOJs9wit9ppMYb2a1ABHINyPa4IdXFS2121pilqlYCXRGeL5cLKmAcc2tTG5OBU1xD0iPs5wiSIxGwGFgk3S33JYME4vka9EXFyc9sLICQCVA6fkRBdZVzHQDHe27Vk7Ops8xfhLTKt/7lLNVMWqAg9IR0dHwkk52V1Of5cZD5ZVR21n1c0SjGdAD6sJqzTnVOO6S5k2xCUIrsp5obky9nA2ZAZy4Q4OVlgRQjgBTKTADdYYqskKNjwFFrE5wRGw8JDJt+2GEDpudkgTnGSGs5H4pfrJmRuD5QFDFvNFtZ+7mct8XBga80lWHMe8VOCVLQ3hKg5VDul2H8iTSzmMGBlKBmDJ6nDJjIWUyCCcF1Ouj0cjoCJMaIqVMQyD+J4VLB7J2zHfjimKRzh+czBaqZCTj1dIDMMg5yAj1IWGZCnPvs+CF4YBn1pwkHCFkqpezmOrY6hShajS+Fs8A7AYvCAeABfZByL4JWf4BPIH1VegB4AQolUFh9GlcDzQChI1NnRiCQeKJuIbJNW2kuRZ1liO2weMOdavdjn8QpcrsEMei2uqzYOZG90p7qUMWW2xUJsFLAajvu+Xy6UEtniA4pyOtIuHMlhPgVZCOucwpSgENPHCUcxMee8lPooFq4iPstDz7VXee1w2czDTXKp44MABpVXGsL36l7OFGIUUbsgJNrLbQeLTLhV47hTu050NETmXTnFG1C0wKSTiAoEOTFhJHVRRPg3wy7/Klm/pqloF8bwgS6YFMR0JPRWRQxxNJiJZfwX4cCyHgp0hbl2wHOiurq6QKTsAZuGfu7DE1rpseXIVXQ6ALGZxEsXz5HvCsORC2EUH2baPS4iM9+ge2xDFjSy7bFTVRY318eY70RBlRuFBIdcQp977vpcolacpHsRcMcRJXF+OSG9oVXfbthLhgk0+xIM3mD/iyYrqOudwNLtiAro11+eab4q32fiOSuMhzL4cQxXySGBeekTsizdv3lxdXSFiaD0JSexZZwljMnw0OixtDa14YjOc5U0BpWVpdrx0pFlMLWpEZEoUChVB8PAczDwm1JNpdtEhkChekx7rAs2VDDL6svGkeBLoOMOmaX62vypQbcXUvmSs4VSCMFsdc8GlKmG5473fbDbyAPzCUhEuH1FnJhuY5c2BRKUmlxrCDrwC38qHA62nH4ZBYvDKMbGZAyUXpV+afHx87CJsCQfkLGCmh21blOOjw8icDwUXTA4sxmrYLEPCLutjr2zqk/FFqZd7gZdwRhxnxLzkABzMfw3p3P++beFU+hwd3aTbITFIQBfwE4wdZSKxcskzO6qYtg7xwHuuxcokEITrdQY0S4DANPNzoINhB7OsRBWCxnbL5bLUDZYCBQQuh0SVz+0nrF1ceLZYND4L+QgTci0Sr+ESJEzoUsTxuVA0klTHu3AtSYDRbBSPx09QLnK5Wq1knBfrhlsHRWLkUh0sNYpVJV9JAALT1Y5mqeH+gDa5clkuwoKbwGM747s4ubDzVYt8wU1+oHrXU7ZG1KuyjSkNLMVdGKvV6vLycrFYhFwsKSs5ezXZ5uQhClWAMKaBh0+X87DwnO0U4B00QuE+ZlcbmlRVi0XYxbGwwKWx/qo/B1rLqiy7kLMwQHwnhkyW6dk3LpUGX/YXSl3IxYLvMCDrsgg2qZ7zcWEBZ/YxJs3lwP121IvwqpC4ohDnknELCxJik9ydLEbyL5ZQuVTlZDWDbGDk96p2lRAgs72L006EWpZR7z0uaJAkUC5J7CkosBVl+XWz2axWK7nyz6em8UiMOCy/K2DQeGAanw38FM4EWkKMHmkoxM46KcmnyL4vGS4FAkQA8K+PgyJubGPY4vipEk6UD4cRAMQSBQJgi/F4ptCn1DqLHnipYA5kY9+IS90OVQI+CSF0PR1+lq2s9HHpqwr1/AmjDGRC8Vrl5JZYybDF2mzyXvlW7FipwkPcxmG9cUkWqtSf8iAB8oZWJwj3cYVMFixcyl50PLAGeUTTmqbBwr9hGBaLhSNJ5Zioj1F8iTg40hPFQP5TlFmMuCE9cTeUZ/2yYmDbe3AaAwrj8Qv9IkiN5SZNjEAHcroxNthaxrcu66ApJFVwiQz8iacQFVaHeoq+u5yIsnINZiKCB0h8wouZXQ5olO4rTbTIMJiNjQpGnVEHUNvhhqUsWpXe2OJUHzSF+KVVD08elqfFacjJGGFTSD0dEJYFb0nQWEWJM7wGm7LQ6WmZbqmZyMazyEBDMehC4XQaNAE0cGNluVYTDyMWzJKFpm3byrkuzjkBnZ4OwAOLxKyQw9QlhC8LcCwwcUMQBZMzfFmpLH8caaNtoMpme0pRYvOUgEmBaSmbohmqiPvKrq+vhY2YU3PkjyshV9Ta8p0RDNsuRWpWOBlZkA0ihBCYp+N2fWqJZynk5GgFgpTTpFNhkg2SqdplQTZEe1CJ+kAzUUySDdRYFg3D0GE+2BtPPquW2eCO5aYCOFuOYjre933PAO/j3L8lydZi0TZbezZDSE0bfsmZS4NSvSIO97oISRhtlPXnaDhBA5t4CoL0q2zCwFy1QA9QUmwxGXgnkwlmD7nvpNfEkhqGQdbdyEZImQ3gOC5L5DAMEgUDkbyk0LYCLrxlJj9kMc4WmK3FfshAn+mPmFQwEZNfsklLbmOUe4MaWvVm5dbSzMOPS0FKiY3KplqBBwsHnk4Kg2I2cd5Q7EcxJOU9Tt/3NLqjTDXxJ79iPQ2KbQqherxXQm5xQOXp0/slFaQ4Ywkx5d77xH8cI0PWFu3poiR0Tyg7CPVsgPyGpkiCcQ+zxfpcGMIZIVbZMCYINz1tkVGJyQjxVBMVs1NyhkYpykO0iUoOCIsIyJOv5DxiOYZQcKcxdzQ42r7v4gJXhlHIMdbviKxLeB5VK/ySf2Udv0T9WzokQPWRTwdhn9pckkqszqZs79vPQ86Ztfx3cZ2EMEcUaT6fiwTi0g3cihhojLca5QiYuBdY30CYgm/broqcc12Mqk1ciix2sVxWJJPasqNQjDJl5gBlwAf2B9XuKBWkRidi0Sk3EwMDMw0cGOLaVxE/9mMUWFtk51Q7/yubMJwqdNhZDmhCs9ET/ODjiM3mLvLzh+pzZ3rdl50UVkuXnofJcSLVcOeciAI0nDtb1aXIsPrDPRSMvQDkErGTa2mks8U0EHvq/PwcB7HDjhji4i9HA/VkMpESnHNir+HIY/wqOx8HWvTvckC23W5lJfpkMsG5iTIJ0MbDM7gV9efSG6vDpUGl9JJLsLZAEyc6cGvZarW6uroCtAkEYFKojp6VXwMlZ8xDCHYwXlipLcjAcTHBF+kFNqA87bgGdrCYiVDJ/ZIcQWfkcrRHraGpdh9ngXyMpQTyPZlydl1R7xAXuFnWZXuT+1qK2nH/dkXO7NCRHffsh4p9tkA2zqEzMMdKiKb0H0XZnAoj7u/vRW9lHMAxHYr+IW6POD8/Pzs7kwGN6Vd8sGzhzstKtiIMrVgulz/99JOsbg0hrCBX0v4AACAASURBVNdrMRNkzPTey5bvgdYWDnQGU6AFOxgPMQ8rtQvPsUakpROdUKa8lAFmtVqFEGQhq1gubdtiaZjapKZUEaSKUyPSzws7xqc6otmqHSmD9LXcTnZ9fS2IPJ/PQ/SLhRtqqCtJuEVnNbCV9OLgpGQv0Cy5SOZkMjk5OXEU3FTcAHgJciEaizK54Syrds+AJYz1GrbbQFME8Fi5unp77ZuOXZudQKiSgjBP9qFtFbjAbjYMVNsMbr+PQRZWD58mhQXMX3jv8ieHDPu+FzjgY+AxfaOY5b2fTCayq/n4+BhmuYJIK+LZlzYpiZckqyjlPhsJeDV0/5DMpWanzId40htKxjIO+VeYj2f4UHaLDAtx0zRif202GzkKMYRwf3/ftm3f91IF1mTw58JquVtE9j/L5SPn5+fHx8dZ5jS5SeGdKaRHVincAXvl9EEJct3e3sotsFiF58n5xbdgJtsaSlDte5tYZZSmMNt3tlrNHYfo8fk4NsgJcYhRcEWigILRpTGbAxchva1KuZM+jRVwCVBb1Ovi4g+m38dzxCwK2bEBIJPxH7O8sxCL96qPXSor/KGnPehAEHg9gRYWcKXAr0lMWHfO3Q80ZAmQq0AZ+MA7PqZGDBkXo3sNbddSCaord//IjhyfmocqmI1fbWmKpXasDiHIVVpyDsTp6amc/CmH50kTxH9s4kSk/In1WRzz4nWngGnZogBMF4hRvYmtJKDq/v5elnS+fPkSu0xCCOLVyjIO6SnhjzREziyVoHjf99Pp9PXr19Kbg5lvUpKpFJtfqj/hQWP0ciZU75y7vLy8vLy8u7uTRarKgFWYYrsv21lWd7wZxT2N+lY7fGoNqNLsuGiLkjaKJOMeFgAQ0690kFsEIPZmaRj0EVPq4JszoOHJegjpTLp0BxiCgGy2HMUBKH4ntz8hKdaUSrHcxDPHPkAfmCtDHB/SKDmxOhSbYADw8rkAjSwulwilS4MaQ1yOAJKGYcBRosxuYOhAidkNJGUmQO2HeNBN27bb7ZZX8/O45EhYeWOTysnNV+Z0iN6W2mOPcgQRpMsFjMQLds6BmapSMG2IV93IwguBrc1mIxevyokUkrlt27Ozs1evXokySJKqxQaUm+5DDBu5uF8ShhhMNrF0BC+GYYDZJXcdstBDeZSKWhzhJEORjEaiw4Kk3vvVaiUgBQ0R8JKXmGhjHUOl8p5VtE+3qYIAFn6QyrYPNxM5rVpZXeMB3jacw1vQIJjALDMMW9JNgHVuDnrTp0m5QTzSM3k+2vjsLkB3gFwu3f0ObihgYWsXST7v5vO5UCOjpU8vd2PVRS+6HK5B4Yf0SsFAExAi7qIq7O8MwyDKg0YKPdBzR4Mq1F6+QkDaxRAjCEaYxqU3CKgmcIYss5QoM0/l7hnFVjYM5Rlt8RTCw4bqEIKsNpIrIYChfTxWSSJfghGy40ey9X0PX0z1LqxLRgGY7oH2zYYQJFCN+QG5th6i37btV199dX5+PplMeIWhuFpABFQEZWCLWFAYl/egryXYPJ/Pj4+PObgJhLXuOcukI5gTbsxmM4kGCH7JdXBN08hPwquGdlMNdCIVNFnBpaqRx13V9Qp6uNOVKuErgIuSN8aRgU6IL2llQxPKfbztRbgaogvZxA3SaLuCLaYBegGogpfXpqddKQMNWqDyIEbBvuqQOl6MP42ZBQomMNVBWMXgh7+qBgqLzVy0smJQAkMh8lhwhSs00DnI6HslCi5uy4IawFjzcUWMdCT7NSxkLBwQBQVnLL4+TYr4wTg+Pp0Y8t6LR8afN/HAELEoZ7OZ3Bc/DAM2M/bxHi1hTghB7BRgcQhBth8NxtUdaGaHNTzQIMnyJBYxNAd7j4Y4uS5N4LPAWOeBpwyUsopqNpsJ0olzimVoPs4DoOOA8kzkQPuZVAe5FFnkiEE5JRVhLEyzynooRAngMg+UMGaAwiZ3QSx3upVPUKtkxpsQLUpzKRzzvxgJeIWnKg0lNGaicLPZINLSUPDOxs5ZgPFvG5cTQiWzmUvgwG0M1cQ8dDHMyn9yF7CMdYvFwsdoHwIW8sA+FxekCFVetIvHAOH4fRfjODAKGMjkJxzP0sTll4zxnqZgpS/bOEnsKEaowMU5J85RoEkD7m/FZW4d97cqE61WvQhiGjpgS15CnfiT4+Njsb82m43ceCZ76WGViLyK+kl0XOxWdNAwDLxPW7Uo5NbWMeK4OLnpKe7go+WP2Umxa96+fTudTjebjSzQv7293W63R0dHIR4Q5kiphAkCWHKoWUhjQ57MathoIR1mbL8oWVcgIqu3bm5uVquVi8owDIPEQF0KB228FQJvuHCmFrxSfgkDEwSGXzJ4ZRsSIkC7FL9CnA5mbN3SNS4WjELqImBQVzaEi9qqjAl0PdPfNI1MXHK7lAZZkQsp8qKBIRqG3N1gPpcmD326XJGJ5J76Zf2qqAccSbG95UREtupVZ4d4xyrwS3KKrzEMg6hfHy9eB/azrDDvMGAqE0zJgY+mVoirzxU3lYZ472XshUuPLmeTcCA71tHwwvLKbbfK5pxTSOoi2AHa0GdyGLHgl4SusIy+pZ0AaIgnNwGYqHwTZhE3waX4y+rBAipDtwy5sIubphFPXCz/YRjkT7FwhbEDBb/RUsTmB1pT1seDql084VMaKyrapouYnFH7bEeHFPuYUeAGFCPEhcqcWTEnm1i31RufYpktLeQOV3DpPge8ROgAX3FsF9SGaJpxw1EsdI0hTOQNRjQ0kZEOwIe4LRPvCCWVnLNoeTq2P9CoOaQusGUmeIIkIWbVlT//hEywUGB8ilkEOGtoMpWRW9ZPgYnCBTgmwC+YrNBeJhrMQhiOwYsF18d5VvDdmz0AIY3vMPelIdxYRlJka+J2fxSL3gXqDcaJkIT94Sy7rCHyrRg+sm5DAnkMc8KNJl6u1/e9XAjE0uyjraTMB0ejAv/JeQL5ERyvhDEr16wJPcfHx69evTo5OZGm8ayIj3ZQnx71EeJNDVhT1sQlZi7OhLp0yyEQ/Ozs7PT01MobtBFzmtxMmCE8jvrUa8PYyaFehm8XEXagqSQGKUkswIHGhlBYScA0sA4zCrCoDxRfQ0684cFAqXowuAkohAkv1kaIiy3UJ55CtApnBzoUkznmyRpQANrEAD8DNwOx4jxrOvMcGZSudeoHVCCTaw0F/xgs4Tx777H+DZ0HBwryqoxGpqBJ44utOf9f9UqgkYfbPBhnXlDApcoMnUcQcUiXmzMfeHQKNPKoihgUsj8NcT7IxxmZEL1mthylIW3bwrUUnjD0b7dbWRTe0/7tgUxIrleVzLLIIwo+Qb8zXkvvyELTQCuMpBxx1niE9DGKvFwuZXUCouaO5hDQ3XLXUQhB9utJvG8YBg4+YDjcxgtNGpo2CXT5IISQG8WGQxOD0I7Gf/YwskMssrHQcmJWW4llSyqkEDaYaIYdjcBV+96KHChEc8Ci7XbLVysw5ZxQC5bvQoQUK5hXTMlAHneg6X5FJJQRWIndDgAEEJNVvc6TjQ25RI+iRDBF7m1mY6GngK6j42jY4lV8Z1gd4qnYSgKsdYNf+zh7jYaxNcS1DNGO5faD8hAPnGTyUMuW9pSymNpa8HlJvFhpQY/YXE101tAE773sy8EsioycECnR0j4eFZ2t16WWdiC7QKkTyLPaCGmWMJbUK9ZfiAh1c3Oz2WxkYRovrJdltzc3N9i05Gig7uPUBKJ4TdNgFZ7glKxrFWSUUJqsgfC0pAg7V8TWw7Qj293QHCAX2GI5xkLlU6ObrZI+XnFoC3EphIGMgTaoWeaXyGC+4U+GHkejlKMgXRsXD6OWEIdM7mgXQaRJY0QhPTSBE/OBDUnkDAbRgBg+9etRlCMkCWnog9VfUe7YfwS72bQGuwO5ZoFCtk0aOAg0cLEmoHAgN+jm2n1qc6mXKHygW+GQech54zBSGnLjuQomFWyyPIEUsqCoJtii1Eu8B9MUr9Dr1j5XEqw6MlspN1D9mSVb/QRJDSEsFot3795JNNfHaCamYuRZ/E1BIpFFnB+vyvfxPJYQ8UXMrhCNO14OfnJy4r2X0+ixxMQ5Jx6uxGdDPGJwiHu8gDJqA1AWuXikZKlrKMzEzEEhjVkqaPmJDH06g8TCbPsiK5m230EGHtBlwK9A6KmgnFvKZKPG1uxyYaYp490ZnEVidRtosWspKTJcitHcHZ0zeMG6apnFG1Ycrc1TJr1PdxigVqX2KBw9yqap4otqvyQeNCzXAnmmCr9ZjHqaTORuYAkIqVtu2eoMLCruW+UZ4hWhA021MIVKBFVfODKscmKgkyKb9dOnU/6SDX0hm35kya4AzSZe7h2iIdY0zYYOfXXRwMxipaftvtJ2+ZC7BrV77+fzubiimG8VP1e2H6Cj23R3FNamWf4rgbFOnKftLIwmCjIC3VDtUsVTkqbAizVLMceZCJcSD7SFgy2ezKiQ2g3ALxZjXwBcWyALjxTFO8yyiQHRp84gWG0Fw9EIUSoZciu1d+obZrdLAZU5yHUwQIBo2OqMX2CcQg3Gcua7S/WT+xumJuMdSyHqGuJyBDRN+Vz4UDXKdjCzIsRokWJLielZienjErae9leDJDSHRT87XJdqr4iI+jz7JyMI+qU3i8hk+Su/ZIa0ZjeVpIauinBRZpBtGAYpU+JrchSqhAsbSp6u0hBs9YTLfZxrbshtdymAcsND6pH5FNNZMlFaoJGeuRfSlMUv25W2Qy3SMYVZ/HLkM7KKhWhAMCu4UpZkT2jIeTgizHN6qjSAHeqS/CApqxEuSgu3URULOn82w+UHiAL+VKQgjzr4HJRhs4KVY87paaoopHu5h5xD6lNURa/zFeQt3U2Nr+CCNTHCJVVs48l/WBfC34JxQ7qqgLsQEOPjUJztPPUm2yUDrauGeqghxKUIq1LYx/6CSlg0xE+q60EwrBsX52R4eaAU1ZiYrqraUcjWpcKqdMN7L4tmWzqYX9b0tHF1NBBHkixg9LT+llvB4yj6mjGC+elSPWcEYcDiD/lb1Wss4VaSQaRiFJfPuAnZFj4wnoL/fbo8ApKs7IkhNceUcKq2g/JtvBYTxbL7wgxhs4AHQkeKpkSUp8KdSUqP+r7v+DfIE1bc8sfSctmRoJjexHiqizqJNUEMZ3xPBHPQEsq9xd0JIZB4h49Gvv2EO16+Ums4suxjAhjCFJHgL3qlUpoVDpZRmVALJoDC/AkpoFtROyApxVP/uhS8JDUUEJDAIhZ5wJd0dLRAT4uYuHd8Ov4DL/q4s4StWkQwcbIFeM4DjDczWRAVbo6Lg1MwkVlmju1QLhNS19PimxKTGfhUGvmhz53+io5QGGSl3cXj3jDd0dDuNGYOO8UojYUw5AIaYFRWR/CVjwg75I7uyDaf+6LUOx2gCmMpLHNANTeJV+5ghJH6sGrGOoMi0BJAwciJ7aPI2batWEaMMgMtebUSMJiYepNuZLcSwOciWHVyFNQYaIUU+0HcqZZXjFNDXHSGoIwjXcWCAAxrGH9AtqMlPLJUeLFYSBQSHMgOA4ytLjU3uCFMqotbRkI8WjqkK9fQa33fY71eiCcLob3yHOiMJ7Y+oBWQe37T0PnXjnCKxRf7h7P6FuLQAvOEFY+BwNHRQwqtXHQ/Fc0sb0q10EZl3vIzdE/Jp5JqRmd+wy9hNAQCERaGJk5eY0OLWrszkMfjc4vamBsgFfz3cRFSSG/hZrLh6KBDoSaQClYcxWf7CaoQ3ezOzs5a2qnDEMAtwWesutY6UO+5HFHRju5/VorXxsQgrRJKgynHZjP3MfIzN9FV3MYm9VhdOvpJx4A87k40U40/Vi3RzBDNOuCXp22JTfTR+rhViHVMXuKIVJAK3VBJaZrqKX7Pz/KvhN6HYcBO+208zA9QC4EB54MBu5Cbdws09cbck05p0+OiADSSeOGCElTOA81s02NbmFc4OKQxkTjmlXpAjSxXqn8tWLMSZTuCJceR98rN5z8hxvx5iHEr7lZGPdVAZl22ySozjyjQ4i2dvh1S/GIAYnNBFd7TmQtMCZdmO+LnTjw7O2MusCHGuofSsfkgEKJxiT5u1gtxROUxB4KiOGhxE6LGYxe4Bj3BJ9t4eiTzSBEGdlhWlnrLkW2C1UZNXMHvjIK5FDgkA0YnLIEZopPljZWOFarMiiY9H7WiA7ZF/Kz6i/vR0RguvYxPPK2wAzc4sTIrhjS0wg52zZYOC8Lw2VICrLP4Cg0y8yjbMOEN2E50FBKB/Q5wcWkEmrue+aMa4mk8UHrFwlzqmhJGMPPrEFZ6djQU8RBi86BqBf0V/BrIDGcEdNE34pNj+EPpKVt+licWYRV56kPp3K6lAxtcqt6q2ZLYUFQDgiOZYHlFZSF3FCQ+BEPBCwAlOIjuUVoUaGIRumQFC/U2JpoIwYWWNrS8QArBQlPZmVAaYxUD8TykS2a28XAbRWcfL5UIZPXgvjLbdjaqlWSAgJAaiUwzmx6OYAL6I+48t8VarEqwXKoqroAO4BWHZoCVWA2LogSGmqaRfeMiM1lKuO+kp8B89C+3yKejiG2I1Qv+EHxjNpZYpJSTiy3pncrDLxWpniwv8EGNNz6FRcsTJTloIP71JtCG/Gxo+11rfRtaQAf6uQtQpuIJGt6p34Y4t2JJ52zyvY3x+zjisVsOoVfIxRDA3HQUlQAwca/zS5DNcRZPtp7ihSREBLyxs9AZSjdgI/iIgEOalBzz+AZ7FoMVqyXyIDDX0gqm2WzmY6iySUN7DEY+BS9OwZhdjgBloDgUOBlohzysPyVkA8U6MTiDDDAfzi+XzPxs4zGHITrsPR2tp8rktgxm4R56uUl3DjNyQXUbcy4rCyda2uTCmtytELYx4OVSrHEpNuFXEA92dekV8QxVrNIKKSzkhTgwh2hAKfKUkDiKuijwCunat4aWrXAJzF7bTUyzHY1YR5hjLgpDMv/ISgWyVGewL814pDqPjXN2+hSnGjpfCfVymxmqIH8hdQRcboVBH8/fcKmFgkFbLCn4rZbXEB2froUBNjXxDCnudYgy2qsENAtwqKWLyUfbh/PwYBVSk8qlksdi4c3ohz9BBkOhJJ4w4T5q4mwjTt8fyFjz6ciBzznx6Z08qvl4asqWDlNi8jDRJMvuXW7dKXMJUNjHZQTcZEZhiArP0iiNYD5ACJWCuWpCBjZ/UItStBIIhtSndik8uRiv4E9acxCep7hqtiKl8njD71kH0U0s57zYwBYLSpo0Zmo5psjm0vQ5hdk+YNJZUl26RM3RNLOnxXX4SdGnuo3lvjc7xYbUMHSmg/GeTQO+6Axt8d7L2A59wE/cJZB4GfqG6NE0aRSzjRvdS6KAwln0bc5hGGRzn5wz0caLac/OzkTnQ5zlGchoVX1UqppHDpYGT6d0SMMxBYxmilXYp4uzBL8kTjfQgTnoAvQRvwffpIo2PTwDNPTx4DM+sN+lqiv1CoBaoQUZ8G5YztniZgvCxwPjwRxY2YHsOB/txxJsMc2KcobjUmepcmD1KyBQ6sBcwkOgOTQFwQM5eiViBjp+wxEOBLKCm0IoJjuoKAp9GldV2VjT8acqVvuPLgdyTDdPWrsUIPHGujlZjXUUWHW0bojZx3MFIW4mR2k8gGOUYE2A3DAvgIZHR0dNOveE5oAJOPRdNvfh/sc23avRmJU4XGMft9HApAISITN3gRy9IODCsR4VEASmW8ayGKlnR+aqAATfcSvWjXCG+1QIFnQTMmS/tBhKHPT0xj7FeIbkUgOZhWGbXiWvlFaIwSkFnCGLI+jNlhZG9rSrCfoJQXKkooyArOoWLLjS7LQA19XHhPe2BJfiIHillBR/SsLSS2YaZEZpE08Nh9T99zHcMcTQMwsS8mD1TE9L4VgTt/GCCHw4xAPLMBBCESSnTayPykpI7h+yncE85VTKxo1nTgVCUDArpKMBxJfJYHhl1fW01KNNNzoMqTvjyEYNBGGM/T0dh8BDLj6EXcY5kQGtHujsf0+eFI/V8i0K5JzeHG0GXIDchxTElUgxn1V3MExzvzTpNIWYmYC5kKJeQyu84Tgz8310e8EiATi++I49U5DnaZuUorkinyxOzkAYVI7dBXQ6Lxti5WTCWAK5o9VPLMlWR9gaDRFHelp3FmjYc4RftqWSB82BeHDhlmkD+TFKC0KaLCw6ctI9ud6KaSxOHO1xZhACjAK/hBXZJqsRzoqBxi+Qwl1VAi+GDFXHkPMWQy5x1ZL6dDMgc5O7UBLW3zLqD8OAYz9tu3wcjXkbikujY8JWnzrnLtUQ5gaoCulYoZTTxXGeQbaN+8Ikg6yf6OOxmVjmJnTi1IdA9lepg6EeTVwHqyRPIk1NGrfq+152HVrmS8L5EC3d4x1oUGE7S06DYOtGWQFMZ4i2kpJD1S5+o9TDdpMjX4lRg7XRCgmo8qmBwzTzJ+hflMw0AymgrhbvFDRkW2010ae4b5vAjFL4lWUpJwj/QOe1ISYLGoa4ogi1QMBcCoXgVSAbQqk5k1QiD+876BvEl/WZC/U5c93nxn8rClkOohz+ylPQAfWykc/0tOlVqYESt0jRAFYKfsGRadLTEzE4441PXWPbcJfOoTQU5Q25kbahfVcsjnIYqZTfxPXogcxAtGigYEFDUUjbC9wQado2XqKFJVdNDPOBG0160hNiSTiLEaH0kB5CiTKZVOWwWO6x3DsjvlaaVTkoxJF2+bjmVnlD3L+BLGVVRRa/hvToG0UGMqOl4B7LfxPjHkAuZQw60juXS1bOudP5AcmaGi4HHKo7QBUml5ghA81jDHRPOwSY3U9FOVRStTrbXtv2X6KVziClwi+FlFzlkHp5LrXIkIcHCi4kpPcGczme7mtiquBCN+nWS8nTpDFF2ytNXCzuowfuTGQdUh7MTGIgrGfmgGauOoQgG6ccDelN0xwdHbk44YWAjmzKGeIcnBSLdbOYdgCiYREZO5tw7qQuuHIuhqilUgl+t/G06DYubeM7aNt4vqCA2snJyenpaQgB19yiayCpKs4lna6WRGRlUYmcHXtsV2bxS/W1ZABPMEGBta+qhKzMcDYeXO2vzkBGIN/N0UjjaUjmZDFUkTHklrwoMhQB9ieXarHFNW8S+tenmN6kwb6GDj0PcQD2qaGj+MyGArd0Z6fk10/wB9wHDHYV25sRjQWII4s+HSTtS1glIm3ezL8ohVGibMXCkTUnagnue7KP4DYqnjCdouc+Z45xE5RB5NOhTCYZhRKBgybeAhXiPQvDMHRdJ8eQYr6vaRqxemQSsI8HususAr4NIQgwNXE/o4urzLp4ZbfQjxnPbTxfWOBVovjiTkqPnJ+fn5ycwP5XwAHh9hRswtW8ynezva9EVpWfBanSS+53JlW4dHx8LDcJgCSXCrwSSEeC7dJzaVCF6uiBplYUajTpTChLl+IMV6r0kali19WlyOV2QTxzSb3EM0xp9Z6pbeJZ7aAnxFNOvff2vgK2fENquNjebMz8BsrR+KXaGUyyyixdgm29zjhuPoZaRDGsU+bSvbKOzmZp6QJ6FkRRS2uaMYvlExUXDGarKrs5ovPQT0gGsxs52cZhZQOqonagIbO3bduTk5Pj42PvvZxvJbf1yX2rDCVy0KicKC2bH+E4TyYTyemibcWGGN9+qOQGnlRLe3oF+DxFBoE+UlQIQTB0tVr18WQIaQ5jE2SXkcua3kqQWF1VUgrJP3GjuBwFXj6eDoALYoJZruxp+bgigMFIzZxCgPv0RAfUywCkdF4VUmq1ihgo/GLOqAiDZQ7TAMNZfcIJCou+loCDKraN90WFeEXOMAwNre4caPaTAyaMrT1dCpUlGD/Bn/hlgz6zjHuUWRNoTRrX0cfVjGpqiatUAORysgsYbmgOC1wGF3waKUAhTDD3X5OG9uUWWNVPljtNurZWMQf0ZH17Bd/OaGwIQW61wNHvvCvbR29R4EOwwzmHq+o8HcS2pQt++N6zEM+9cPFEeUdzmnDrQFggGxmWFCS7jVeZhmiinpycvHjx4vj42PY43vjoYA4m5sVsRO+HarhHpazQulSfUTLP8wSKo+MrWEwcCkB3+HQE9WQveDKrFXks6g1Fu/ilxUrmCXPGGSWyyjvQRJCScMUiRmTrLQHglKIpxVd9alWpiTEZNnVdCqxZweCksNKz/cUjSTCRLE9jtUJoPAzx9gTs2uOaXIpT7LWBdG4zfgV4NbQ3BX1vPUorRkwkmCiaDGkO0aRvaB4a/G1paStzgGlmRWUFUCES7iGpS26jkDdq3RN3Rx+POfNxsjnQWcmQV7yHfoYY4APxjQkPsyfoUwsfsqWkTV4eHR2dnp7Kv8A4VptA6+yUnqCN+FNJsFVOlUf1lDfDtZLkhuapwRyeBmWGB+Mag42wIjGKK76x4DW0aAYy06bLJ12qHchmMVQlJZCqEC5KvWR5UJTwh1ysyp+tyKXKrrgqDwqpWSCbdJZfJVZDVV0Sv3cptkG82CgFAMGGhPGFQ1e8cezVAzKw365+UgAR0iA6B+zlDZRfYSta0cf7o+7v78Ujg5QoBjlyKi0ZgTxQ1dNKl0IKecxhMa/EZ2Q+w9VCp0J0lBo06fY9fMV2U508l4pmExOLYEOhWTVKuxhNC+mNUDxgqIrsG0eooeCJrQy86dPdWtlGMdagN9mQB9y7NGXxy8dgFpgc4mDALWK7LBgjxTKc3/CgIkkJc0m3FR8UQxRnKsjiUqiCGgKz2OxozUKtJl2Dhjbyg7J2uXwWbNub3DRLeTIVyjLkaWkZ9xw8DhhHA3m2INr2oiMtghWdJdflLMGBFpVwtB4SA3kFAqItWPaJJE4W+K5WnAH7FO887WBQbWnSGSWX6ifLoqOVBLjyC00DM7kWsBSUsMJLwxHFZ46Bh+gplyIyCxM0PCsuyiTp+14uNDs9PWVL1mqOrU6JBEsOsrHE40PEmDhntkxmERroDHyA2kCIia+4+fwtS/iQui9K5xXTuJe5BLV5kAAAIABJREFUfA5BSMJ8dAmAWERVUao6NSCpJnMt3PZAiWvno9n4Pbc3pAMSDwmqNJ8m7qlsFVBAFNWpIlTnsUWgAGKgG2K4pkBOXFbVURG+KonLQH5NT4ectXH9eohYNsQ1zd4EJpi5rCRDurfLfsKsyJqTwzCosyWdMVikEI7ZZYcj5k+bnqjp4vimBnwIB8uNIynnN/iTJcCRNcdBMa5atYWFdT6fHx8fHx8fn5ycZCdJXKpOqrGOxFepCpg2pNartb+yllSItqHSJXwCVnjyXJTk27YwV1lTAhkO3JzBzG9yS/klKzA+dOkcekgHMB5pFBktrWHkzxX/echp6JhflKbaPuRmVH1qM/ICNyT1RnWTS3VKCZ5NMIzk824gF4w7ycUNccCvPj0EQi3zaWiVhyP3E4xu4jpMl874Mth5c9KDI0wcUteVOTjQcYDcf2ygcoLasxnozTBVEjL5CadENDRvoEw/llS0i9dSAq24HNX9LgUUhcKoxcdh35nB3xNscVFM1UAXFyjc4fLxRq7XlvlTmTNljjGOqwcmSTGfc/p0LFHtddFG8+bEKAY+hjwGCEcy7wnxLZ0hRSsfcZnr9SY+GMiU5uYoNVbCj29DxGvuCEVeE5cBcRU+DvDBmPC92X3BXylx5cZmRQW/MjKwlcN8UJTjQwg8U6WERH2oiupkq4qYElhI3cdjTNgxHMh/bOLKBpTVNI1MRQ1x6QeuMgWJMmWGJZeYz8ZiblkziS3TSHAchFlyPXUfz/mDjAqREp6XMoUGRFvlGVHwYRiwXpSPQ2DBdaT8Ph2uOVrEna36SZo2xB1eCMPJEgTgr4tnimElii3H01pfl6aWdvM5A0CKVH4PAoa4osKZpD4Eam82m7u7O/lKzsmwFpP93KWgxuOcos1+xXgdKHrAau8p9IFxArBu265wh5vMrQAbLVtUA1UhTLwaVByFlrhGZUMhs1pR1cYlxy4KAGdGQoS6icuSGb+Qh2kLcSU9CoQeoRUDuRcMVQr7SvOhyNDQDWFsctreVyDrnOuwKpqXdWCejtdDcGv5Jfs1EheXdsqdprIGEof2QfdkMeSXX34pFyyzcDBmDfEs4xCNLBxtjJ4TGN1sNqvVahuvQYW8CmKKnYjTtewpzD5130I6ClmeejMmV5JPL1W1U4psnPcxsX5ydXWIAUnWj3CkWpxZvcyKDo+NGGzatl2tVsMwXFxcoEYLLnXmcBVj2MhkQ5cUfsE2YWUDky0HSm1Xrcavgwk8cYFWX0AVWqqGQ2CZEjxAEsMxRjIeMJgtWf1ni7hJQ7SoGmKpcATCAzkccn6iReeRvV9PFnnwZwcAkr8FnlUohBPDfBu372632/V67ZyTaMh0Op1MJnJ3vAwUy+Xy5uZmuVw6MjhXq9W7d+/gUQoBcAMdiQIzS8oUs7GPSyiHYZCzXAa684JFQVZdI1yFRapolDQEfWzRTQFEJXkalkM6nGKVifd+MpnIYi6QHcjF8+Uh3f7KtCmy+StLeamNXL7FOKiiDHI4YQIyE+INjKX4VzZZ8rJKyEiHqQMmsk2vK5aH3qyh7dNlqM7oSZbILBs5v9Jqlyp/Q4uB7Mo4kIf4F8Qboxo4zF6Fp+U7GPkCjTo+mmzqHFdmnTd79WxYkwcM+8DiFMh9GT+MlZKCLfRF9+2336Litm0FgFQjHUkSRjOYshAgbA+SVeNyzZd0wGq1uru7k/XlYtzJV8vlUjgC4wvrswRNIHxgBNuxfTx5o0+vb0KbXRQFjMYuzvr7dMmF2GU8QvbpIZYoWY1Iiq1ZpGsoKr+Nl4+pXdk+Hr+Dzmbny9Zi/1SY61KlsligUtYXdgYTOSfeD3GdmvSazE6G1Gqrp53gxb3JecBwFmNlCQaKzqAirFxB4eyc4n2WJ+NbwaQGGpmaNDbP4MWlKXRQP8nnTVwfDwK4NOThZOW2jce+M34p24J5mIUt9W82ZLFX4o7gP1Fs9//+3/8TMFqv19vtljdYsOGNBzEZsLtFytrGK3MEASWGtVwuBZ5kAFmtVnBOOYgm/tQQQ5Vij4B3DEkI4mDGoDFRHvSBT8O6/Eba2KR3CPHtzWxHMAYxclkLHJy1EObjGYFNjHBx4M+lqIdn/KtqsTJhFYDzjJEh1gGbWEZBXh+vsD09PXXO3d/fy1ZN2VronMMRGrbA8bhmyXApZzzFdBWFLP1K01zsC7CXf7LOkVKkbIuYJJc7L8yRHgJTgnEns4jZpGccYRT35GOiqCEGT1BRS+feoPCGVv8z6xTBDE+DWSxV6ilVZoV1O5PCR+ZqJ2Ake4PlRAHuUUYuSbJIFfaOcKGP9xXivGYfLzHEYXgcYnfR5JFQIgpXwoScLe0KdkZSf25J9/NZQGqlNcxmWEAYYTAGutT6ULXwn0oCstDQ5FZRSZAOR1Hf39/DOG/MHFO2cEUMVxHS6IP9kFU9GIxjCMi2yCpwiI786enp2dmZ914cRvSv+jBL2M5kJZ6JDylssVRY7yHbdstS1cYQw5GsxgPt0QnkJYGkxqwuynalzyXQz7jm0uiV+ryhaWtLv4sapPYMcJzX070taJTFgVAOOGa7DxSO7H3bKXiTlVvnXPfXv/6VXWuWBlZvxRQfHWlRSzmfQPBIgl/YXYwyGcU8zbwOcb4S5fNWNW9O44XrGiJ6CpFt3LTY0hU+fA0EuoGHHTBoGAZcwMkSxm+Ygyxb2T5Tb+RhOp2enJzgeC8BdxtlUH9CaBhx+F/omOp4lwJHS5e5MmH405q03O+cc4hr/eVEnSZu9g4hyCiIaQoYqhiibBtLqSTxIcXZLMcqZQIRQs7HYbYMFHhCLUO8CYHjDyxIoew42+ZjbGavDUMgupgxBVoDf5Cr8wYrA/mtimAwE3c4ckXKA3Nkf9hCnBFLICZsRhZghhdGOowBXLhlpvzazedzLhEVN7SDmpmILoRxJJuKIeVDvLQZJ6MzSIEyCZGwySAPOI8QbqySDBfXYft0ig2ZMdUIZx5uPIc2me9gUJ+eRsC1Q8j4PT+XEihv23Y6nb58+dI5d3t7Kw47vGaQpCCeRz8rN/K8Te8NULUjvxo5PbkwIR3tbbJKLi6wxAogeXJSGLJNp9Ozs7PpdNr3/WKxEGEr1eINJCmptRlKqYQdXAJscPSpUh4frRJ0kyPsZgq575jDsNFAVbYJKiAFYXaEBVA3llifxlWyXAUxJUaxfvVx2yzXomhTIxxTwryF3vXpjh3Jr2hm9MjKuUpgS/fll1968uBcDG/LaS3cr2ghLCARVlnKhKu0IL6ML0O887WnzTEglCfFxWrD4jIQ0KcntIXUG2J95jxYYhoIeZn1qoPhFOPIB5TcmGtgPCVVpupgXiQhEDadTu/u7u7u7oQkiRWqVnjyR1COJd4VpvOV2vg4X8HiONAmBMVJTlZqfYyqsAiis1Ba0zQvX7788ssv27a9urr6/vvvBcKsxI9Jh33Fn/OfzDQ1HiDBE+ROd7TYyqf3J4nQIlTCrFZYwMQofGGhUu21TbBRsGzDlV9vS1PYwarhSCAVzbYtzuiFp2k35mRL5x2AAG6astesZjnnupcvXwrorFYrzMhgPGe7saddhLxb28WpaIi4xOC7eBWVxNdCPBjImjANbQpt4jJ9ZpklXYG3yhyijc1h+0C2/WDC85DLEE+MZABlgpVQWpmwL4cYT5XmyyTv+fm5sEjcSTZOXYqb+LOhtZrc5dlKFVXZbFwao8+Y5NPIcaCVgKhutVpdXV3JWj/vvRjjCvFRmlKnkWTsm9BYXmGHXzHr7QxzkFmcA7iW8iGHOETAGhPWZKTD+z7de4vn7JjkKZbEzIdvbkca+amn5akcJWD5b+mQQqs1jmJKId055NPxT4Gpxa9Abju0lTPj20DoiQz8Z3d9fS3dIFqELvGpOY1ChRdYRCo/ycwdnL7NZjOfzxs6Ol2yySGfTZzqYo9PIRq3jRNaiMZww/AJ+lKCykoCuINRI0YDkNTkDhJQkm1VMat43LWyEm06nd7f38/nc6x3CykmQkSs4+DKeGQr5dK4vdwWZrgVEcVnvOGvECJRHtMwDNfX1+v1WiYlJU5quRRyhlX2ZTbtzKZ4a1+CvRiJgeZDusUyxFtLxFTnyA50G/Ey1VgLXo4WvvNPio1MM1SSy4dlzdiEorAR0NHhmjDq8S++ZfgYaFbNmYCJ5af6lRWqpbODwF5w2KUeG5KSRhZj51z3ww8/gI9buhvVEXCKJcKBxul0Gih83sYkwxesiRB3IYg5Iytj8Ykzp/EwI0I6ZKEBTboWDrxg/EJTWW+RlI2Dl5AJCGJW7h0JolX1bOKdoWzJhzRZYLUtcmQUj08s91b4PEXZXQ6/sklJ+ZCbYXDOiZ0ui5mH3HGPqo37ppEY53KdqJ5Zr5SCgXtQNp6tg8HO+AVM8WQ0WQLYaAVJ4q+g/BJ/QmoHhfQ8DEkKv1q6PIGZwFrvUsl0BjXUGxYeR1KqcrJcsQyM7H0rWs657u7uDqqrwMvHY61xXSvIYpoCnUMv/8pgG+LyhZAua0BLuMHqZcglZ0SQWQ/EtK0F4zzNUZQy2M6z9fJPWbJRl7RaGCITHZLk5K/FYuFi0K0ph2BV1SUOjMlfaZH6F61zqdvCX8l7uZ1koH186iuolksjR6q9MBBAw05uWL2qpBLrXNrvin4lBj4e2Mk/IXzsU1MFzVftBUOCOVbEUiu/9ul+EvXJQBOFKqTAdokjEQXTQlztBMRhHYF4g2bmjzf4hQaqYILtI6UpbIRy5lCwzaXVPy9zBwUYSF2MWGNhOmgtkYLUdd3JyUlID431xjNnFqAxzCm8sVaYogEZWKA9LU2GzrCBrQpREuNy2u5Tz4t/ZQqFHuGbONfAL6zSEPxq25YjX1aaWc5YIIJRPDciqWwsndk8Cokg2dxShE19mrgQxRkXpQujI87UZ2aOBKZstpHfqiaX2Ag+Z3/FpJZ6z5YyBjNHPiMLuSMGshslVQsGKYJ9tHQQ5GKNQ9SVZ7SdOaqfSQ1p/IR3pARj3zB5LmW4HcCsb4FyeJaPIYzrsr0potLJ+b+Bjh4OdN4DPKlSdBBta9KAOgxUhmFLBFMW0qScrCGdLcoWxdiqBnkeNJhyl2qXapczIqsQhAnjUKBMy4pib+N9tLh6Vr7l3Zo+DeqVSGIa8GzxovIhPkEJpcFNsct+y1HRnUmxXZJYpl988cXFxcX9/f3Nzc1sNpONHFnCPmIaMzz0Zm+T6ikXIwmC1/JGHkr9qORZ/QSXyOLXMAzi+uDiFZ9GMDjExnrHLzG56cnOciQbWcFjXnGGbGbGE+uClLgBCn85qabruqOjI2mkzDCCpxhdsYSdqcxqOAhivlQS8qhxSRL/6WkmSDECAUJHzK3z1xl9zuZk2hRs+egnyoVjsupCNk7JfIisLFF8YOi09DBheM/AMZi5/zEK5kgClChk2w5W2772cdP7eAhTaYircLque/ny5YsXL2az2bt3796+fSuL42wo5zkny0aFBS4OWuh0xhEkH6e2QnoCohVmHzeloZyWNq4Hmkth5XIUEWPYwp9cPqRUdYQS0axNg0KcGQvtTy7VhfH93i0WC5/uKMT4D6ZjLQIi3BaVwDIOw6tmVHRM1VXKhl60O8zZHLCQX8fQYFxu+8CedaCJJxdlronzreIn8iYBy6gQ93A4WuDHJidq4Y6wFLrRyIWqFXKVAIg5ydEDeYllxlZ2xxOz3W7v7u6899vt9quvvhJ15TDrJ51Uvwy06wgqlv3Qe39ycsKfcMSNs9kP2/R8ISXJDG0qIsaegUtFBZ2urIoS/QxDKA1jYZZLMHRUIKLEW+TpQtyvL21AeBVnE/IBgRgWQOIQj6DgFRw+rgiHkqulayDdiqmnGJC1oXx0Ei1+IUOlwa7KdH5WqIFWCzFtPCMJ8Zq+72UR70A3tsLpHmjSA9Ljoz2LICOvXM8SVmpXdnyzie1/SFhpxlrxvKNb451zvM8f2eq1K0okf9/3d3d3q9Xq8vJS+l2WFoLV48t8ijR+bNj5LRiOpODAkRHQxyOkoJtDvDLZlhkoOZIHTmp4ttDGW1NCekamJ3slW2Op7ZwhC0mVP+u9D4HvcAu0jyejqilCLsgaIEOcEWckEsXGYcTQkJAbDZgaRxE3EMpesY/GaikcqKqo6LYdSVROzuC9l62dvKcqhHB3d4eNB/B84RSoPrByJhor+4pkfwKPgZZUSBiXL1fbDsMgRwk6Cpda+VCgn32jwMvFa6uZ7UIzZuLBurrmqCogY2Kuoh9DesVpJY3El4fA0MMrzUoUixy/FOHBZgywNGuQcuxVoQyrg09tn4YuGeG+Q84QjzVnzbLGF/uqlieKBttYJCVsaBoTrOhE6uR8VE+xPZQFpLATBKBviGvcG7qOhdU4RPsQ3FGkM/U+vZrIZqujuAIvEKkyNOnC1JAGF5jd+KlpmuPjY7nxUMiTvVPQQIXIbGyG9IRI9sUwyk2nU2fOXLSdGuL8PWaUuq775ptvvv3229Vq9f3338tpzsGcbS2pTY/xsF2QfeOj/cX0+HRFIn+o5CwrtdybIY7/6r0lzOqJlaiDU6mcnRg6pmSWrjrBUEPF2GzOEKMQ0JoQIzA93VaRFSrLSX5gKwESpVTDpXEVNA2WDf9piQH9WbHhBISxjPplfhRvef29j8MvCOJJ4iE9MV0I6tOzBm1PMKEKv1xuEXCFy/yvGqAw8iBPSFcSQp6Uzgw0kTzEfdfYTgThkOOG7EwZc5mFVY1UgMUhbk6QSSLbZJsC+d0XFxf/9V//9e///u93d3f/8z//849//AOoav3rbKjLZhuPceNfVtpSUiRnetlGu0M5pOIeCd2yVRyW9iqHKYfM2F/R0Z5CK2w9iBuU5YPFNUWq6guuFCXAaYDiNOmKXEkW5hxBMBqY9T9cuiQtkGHYDelMFjdJRcT5V/h0Q3oiykDr6fFJQ/sVGtpp4U1IL9B0xs7OtlDI/EXVWUBhpQpkZDVxAYSPkXhMb4vBFaKxgH0/qhWMjEytGnZcem2BTHWPiYWDWvn2j3/843/8x3/85S9/mc/ncsjt7e2tHHJr0Sqrijb+VeL2mGwHpGzJ3FP8r2KRDSE9RQrGhP/AKQs04A/ur4Ci+Ri/dhEUFD/VG58G45R2OOOBcmKFtaORi4YFb0hgUFPVqek7qNKQToVB735ZP4FXSIw7nlITE5o90OowTyYb78pm2ELK9pNPUb/Ucypz9tsmXVGigB+USzRHAkmyyUkWbfl4tBY2tCsAcgX1sy+b3DYR8MESXyqKWS3O49dff316etp13XfffffPf/4T59yOLNCCZlZFs9Z7tvCDkU71dYjT2RCe7CcfBlA+GGyVKrLveURUS8+guQ1NrHHy6WCvfENky0KJKqeewZEr2tK10yE1d/Ct3Q1aepY/O7zNzoZwOAwyFOjoqCbOdns6/N/HywKUKGenuixzS0mhD5dQV1RGbv5V6Dw6Ojo/P3/x4sX5+bns61yv19fX15hRRhWeYueqHAagMbLOeXgE44ao3uLqhPO/+93v/u3f/u3Vq1dt256cnHz33Xd//vOfr66usCdsDHtD9SzAUqqw/VESyEAXhKqr+HmnEnjxM78ZaDOADRCpvpOBUG7wHOIiWBwkZQddZ/pdoVgW4zyd+AqClR0T0oRwAR9uGuLcqCBdB5VTBiRKhAA1dIq22lQEOqyFxSxQfcC461JUcoQFeOA+YMdQylH4y01QD5JkP/nx8fH5+TmQazabLRaL5XIp//bpESt9esapSxHHQqoVrGwfV4wL+zk4fHR09Lvf/e73v/+93CDrvb+4uPjuu+/+9re/zWYzO3iUkh1UKj1VyfPAZDF0TKW/Evxy+4wrPg311r9lvbbTO3LMzDamkd56yVYAVQwpjBLZEHaIhzMzqPXx3uLOkf6o77E2oqFDJuTEethZzsTUXYodFhP5T5BYYk1pnFd3BaEQTz4sWBnSuQ80VhbHz2YzWQMhhwjJvh/eR+ZoZGDOWuSqJMUHBizuQvtha06XDiG0bXtxcfHnP/9ZjC8pczqdfvPNN3/605/ev38voTrmW1PYJ+wMdvCfWQx1uR55YMoStlMDeQi0z56mxW332VbUaTggPTXol+oqaQ3IYJwa4hWrmOaD1uNQGfBQosBqX7MiowRejgL26idVFPpRMuNWDbzE/oEOubFSjlvY0GmC7B6i/QfLMdsmFr9YFrlJ2WfkUVZMiTuS0G3r9RpSLoMMu42glik52BBgBeM3+zLz6Ojo22+//f3vf893KTdNI6D2448/fv/99xz4UOOqMxA8huxnmHjoZaFl+VGorZ7rg9CTIs5TpFJHV5IIvPdeZq6BX2ymYCRo6fp61DiSsOx71TuK/qxeBJr07DAsq6k6NIDbIBusUIqvBp5VlRXS+cGSnq1FzVwgA0wtdAOfgq1Yj54DDXamRqVH0WQ7ZGVLDoUZn7ZtX7169cc//vH169cKB8WpFBNMDufh0lwOQJ9hGk9b0zSy55SHQMwaQx4+Ogw9nICn7i/o9UAn5Lh05s3ROm3+1ZaWHeDtbAAnrtSaCCq/aHcI4ZcYFi9xQHFMOjD44M5QHwbj8apUiUAH2mupyhGbUa5Bmk6nAsHDMKzXaznv1JHdlwXHZ67bp6en33zzzR/+8Ifj42OXugNN07x48eJPf/rT3/72NyxPk/TMMeuw1DTN6enp69evT09PxYLYbrdXV1e3t7cI2ahB7kOmbI3PthdAbUgDVSpKxT4gmxecfLr2W6y2LCSxHZctKptQ/s83MDrCL9CKvg9pegiPOGWtLUfheWVM2s/7eEi/ixO0EpI/Ozs7Ozs7Pj4+Pj4OIchJWyEEOb+YBxCEzOTPBwL0B0je+/Pz89/97ncXFxdovrAL5uTr16+//vrrm5sbdSLV5wdh3vvJZPLy5cvf//73FxcXwzDc39//9NNPb968ef/+/fv37+UGeCyG+i2VkpJ5jheHuJZbfVJRzxA3Bsj8vlwXgJ3U7AZ5WoNVLzNLcIflmt7MgnFB7FWhjgcqA5uLCuBVM0o2aojxeDlJ6uzs7PT09PT09OTk5Pj4uG3b+/v75XJ5d3cnE4tyoA1KU96r+xhD9L4J2iinZTVNc3JycnZ2FkKYz+fz+dx7v1qtcFTe5502m83NzY0Y2pPJ5Pz8/OTk5OTk5OXLl2/evJlMJm/fvpUDrMcrxq8zZZlTUnOlQdkECOPtK4JiMI0xmciTm3t10y+HdlutVg0Yj1mlaJdqPD9UHOms8c/rTuU6nxcvXrx48UJCIXIY3v39/eXlpRx5Cn6FuDeYYavuxpYaxahXb/KYNDLzer3+17/+dX19/d///d9N00yn07/85S//+Z//ud1u//d///evf/1rCGG73cpEqnuwzfXMAX273d7e3i6Xy5ubm7dv3/7hD3/48ssvz87Ovvjii9PT01evXv3www/ff//9+/fvsYaozo3D2vu4XKpI2uOWtrMi+XOg+y73Un/cstjSMc6iszggSGYScV6L2rZZabjn9ffZxrgc6LgC+qqGZVkTzOEWPBsgD5hIyharym/i8fxd1/V9P5vNxINYr9dyHZwcyRDS9ROKBSUGjTHKLIuz0eLDBv9svbKi+vb2FuuHv/76aznc9fr6+s2bN016Rtu+lT6ENkkf2MyR4erq6mq5XM7n86+++urbb7/94osvxAY/Ozu7uLj44Ycf3r9/Lwtl2Cd6UlL3Yv4Yi+bgwm0aM2C7B8zL4UFQSSCMpzI9rc+QSRjEQHCrLC45q5DXVTDItmQM0lVKUFEt/iRry6hs7Lois3gHq9UKm8xHLrdTVucHSI8FYY6mLIZ4FoWLbS+dPLPTH/9EEwbC5XL59u1brED+8ssvLy4uLi4uuq578eLF1dXV27dv3717BxSrCOGHT8/Tzh0Twym9VIis7jDnmFUbE5wwealW7WVpe2hcs1R6k9sbyC8rZMFRlYSxQi09kyRQ7Wh6FH51MMdgfQC9/Zyg4fknFbtcLpfiOM/n89vb26+//vrs7Mx7f3R09Pr16xDXPWbP+P1YCFLXz1J6PmI2nm9DeuhYiKlJk48HjexczOQOwK8x5DIGZb8SsrJGrPXp8IYXTCh7DRkCJbfnIrVfSXoUPjwTZqJz0dHiXK9Wq8VicXt7e3FxgW0xq9UqpLfPfmzyf3VJWbtDevoDWyfQ4iG9yVylR5hXrsQRbGzIVe0vH1dyOLK/0IzB3ARl2aGKch9j0cAjVjfeaH9IgZ90aujgzCaeoyDzkuv1+urqyhG64RwRm+zA+WFSRRF2JpXto9D/EL4p6Mgu1quAl1P4tZOOireowlIl20rZZco3bNtWFkAw3ff396vVSi6k4bX1jiBcxcjGtKISy7PthQX3EBE54FvbllLEYUzfjSztEdMH0KiQLh0KcY4ohLBYLObzuYtsHOKlnBJqsWPh+P59XDGwbywl2Tw7vzo47VVOVq4qJfj0YHqlvy72qTLHskV12Yk5Rxpr6x4zOJRGFf4Wy9gmk4kcYnN2diZXaYkPfH9/v1gsbm5ucLI7CucGj7Gw5BNluO2L1+yWOlpQ8nRGjW0aOj5Lm2pgdnwuOfWfYkKPsJTzqGP5UFon+azsryE9tbg0aNVtkw+QxnCM81gwyrpoth9Lhf+yfiKbz2pmdqFWSc+VT+vikhAxteSwwKOjo9PTU1l6enR0JOvcNpvNfD5fLBaz2Ww+n8u9Pq6ge016wlEllUB5ZFL49ZCiHpIqlX5Er/ljpfr4wT+pAV+5AhX766O4aftCA9Kn0u+PYup2pZ+lsy1alSBflaMExdNqr7Zt5S6Ms7MzWTAtdyDJ9L9Mby8WC7lWS5ZH2PKt/JWa+ujdyXD/sWQlq2lKk0uK/RmYXUhZ/6D0axaGKrbAXmR8Tlz9WMnvP9XWKVeIy8ruQMx6mlkx4g0B3nuJO8hml7OzM1leKLuX+r6XNTuY/5YFqLxdwf78AAAgAElEQVRJyqUC96kMMs8tHQDx9UDGI9D0PFKlmc8Wmw6zFp9tcw5ImflHH5eQyZ/7BolUkvPPjo6OBLnOz89PT0/ljHk5e0sOO10sFrJiHstzhvT4wJHE/JZ+S7+GVHGbxmf+DFIXzGadMWF/lUrxRYlzibf44sWLs7Mz2SggR7vIzurlcombq126f0iZ5daFtH9aNzaLfTsB8UmD3A+3aDhqaV8+xCzaq73PWTFG0jYytlXBhUo4+LH485BOsXpRCj48Im1j0KP065jGogm/3LLBKPZYfoHUIcbUarXCARrb7VZ2OcmBEGpd2JjTArJOa1arFTHquVROtkCFqh/Le6qox3MGlOeZ9o1/leKwI/M/dRpf3ZPK8MGtLqlwic6O74mzY9HO5tVNCe+9hORns5nL3cGV/fywWeGQW3SW7aQ6zEkqbXD96DPWKrDo4mo4LHpyzoV4xsbj1st/PoVa7pyKedJ0QI3gtq8e7Wl9goOJfKy0s7Efyw/dt4pP+Fw329SGrrEr5fkMEtv/j2gs/5b2TeNjxL+lJ0ofFL8+ALioMfxz1e2ncPZ/S+OTPYmg4sv/1kFPlz4mfj1uORWv8HMSoM+pLZ9uGh81e0gE5re0M33C/uOvM4WY+M1HpOfXloBHsoky0DXROz/Jpk+9+z7uig29f/tRzGBEl5+oGRU7i6kdM0+XJXLkJGalhJ3psNl9fMsztnxqEOcZSZjNNrKND5zeOYCMEiWPlcbIlfyJ3W8hBDmgHLvBS+7kmHofxbguVZ3Vyn1V9ZmgLaS9U4IOxcANa/hGfH519luW475wePGYecCHr0PhFu1kdyVbZV3Fzpzqq52jQqmE7IeSEHwZzNW/9bYfMJOoqH2gEB+sKrZpFQw9wC4ohSBUUXKC2MnJyenpqWzm5UNQdrbuA8zkVsovxV5GvpT0fIIYnYvdhqNpZLm83HokRjLs5L7vLy8v5bxTTod1SUmxD16jwDK0l7WYVRVFxsgjw0fWyM8V8KoMjAxh/P4TjegrPpQ0yprVe/V1nYB6vfy83W7v7++7rhviLe74ECfzSNqXtkcZIR6eHm6OHdYpsJlGEtBtt1uR+K7rcN+BXJ44nU7lyhA5YH42my2Xy1/DrVzu2Ywwn8QY+GtL4oLIwkbYvz7uFy6NK6X00ZdDf9Kpk/t7jo6O5LIDsYplf2KIN7/KaRCz2Qy3cn1m6ZMTHfY6PzniH5KUp/yxaBBfBDgFa51t9pHkcbYnje59lqn77rvv5DQIwJZzTi4vkkPE5VbU5XK52Wx+Y+5v6WMl6yZ/LEqQ2JNFeEFtMhuTnkNbDk6HBYUfK3Xffvvt6emphLpCCHL2FpIYXOzhf9K8zqZn3qJ6dKyS4bNPH9da4TkNGGLycq91+R9319SnnrqLiwuZQFmtVnIC193d3Xw+V7PCkuwkC95zofV5HO7sbLad13yUki3QBnez4d6HrGHZOaWFf8dPMlaoyv6qeBXMDCwyl3SeS8jOZowh2KbHVUiWOtXXH3Jw5Vi+/TXkLkvmT0ousOo+VeNDpLHS45U8FbG0UyiVPDsLrGRDt5a+7eSwwOVyeXt7K2efrtfr7XabLTELEGNoUtSUPrQzSpVZv3oHMNQq8C2t+bBk7NUuVVoJnceXkM2pNm/bX0vFjpyXzJId4qTwYb3/6EGrEhnoazyXqq7jeKUuNQY7kmqUqRYYVQQ1mGB/tnNLfB5zIMJhQ0jlK4svYz4fOUiPx1/5tvvxxx8lvCXHB4IFwpr6FdafTcoK2Uj5ftxkIb5U42GU/BYhdlXWjbHW6yVkUzDOvh1arKWsShhDxq+tf7t//etfCG8xO7LX5P2qWPNxU0lzfktPlPb17utFWXsKtqEfvbj6sLTThPycUjefz31cbS+vxPQQ/MreNvRbeurEgZ6PS8lvaXziIUdBGFAsuzY7xIQ3By/h/tXZX/Kfup3M7b8Q9jNLWf/xSdEkG6n5zQr7YGmvyEu9EBVv5V/ZkXyinj14suVTTF3TNNmQ8L7Tf9mZlFK2UnRpr7DfXrHkvX4dH5UcSdten6v8dmixBaoBHKFrG3uu4LJyeWyGkW0ZOROiIkEjO3QMD7PljCm/JJYHpJIkA7/4BDFX5nDdnnoItXt9ax2CirSMr67kSteRnTnT4dXjwnaF3DEtrwPZXrOzIyfd1J97Qdjjsm5naSq6r1hagYyQ22O470BVIcwSn61rTGmWtjqcVYbP8V2ZRfwSwZVUIRjvS9eAc56dkbIxvZZVFjszmx3qdhb+QGzl1qHJO3nOMt/xfT8PSY81cD1dgW60/jxF1TuTmp9yVR/Wx/uAZdWxLe1R+rSSHpdFO0s7rDrVp9m5P5U5C4j1ZGNedVujVB2rbjA71SvTlyrZcwdKU6gKwvjXsOcuzoMT+JDlfN3tcJX7tx9O02/p6VLdzvrkkh11P5hYfvTwonSlp+uiYV+A4M84GM3j8b5fOZyf4x5mKj+H9NEF8cMka1g9ny44ONm+e9x5tIfEFp467TTWKq7xSPp3WjEfJakGHtYXv50f/eklNrk/j2H5swTlfZPyoWBz1ae8PoP0kFjHk/iPv6Xf0l6ppJzPwT566sTWB3zJrut2RkL3Kp/T81F5tAsBhJE9jibo8+/VQynZiSEbWVRzw6U+GMlNLjbQNre9vlWE7UWAMy11KQcOS5ZLY2goFYI8pSlaRXAIQZ0SXuqm+vGzfHqM4k9WD9GJlTKZ2qwzpTKrh301YWS2LNlKON3o3lQlqEnJnY3NpuweWCshFWV8UoBjTqpnSIUioORKB6yfyOYuveF5Fv4pOznC1Nh9rVnELOELM/cDbAz4MB7NAcazgpssnZVilYyq+amSWI+Zw3LlJQjZ2Tf+1eXEZjx+lZq5M48qcCekZr9yKVcPmLnjz0MIfFxVaagudcoBghp2Tc6W0mFhyhJK2l5WsB7MPGz3dCjwpCj+AdJO/HrcGPMYGrI/1U3Rp+vf8SWPZFSF4Q8xt0vlH5znITRka7TwgZE+0K7JxyVyr0Js5gMw2pmg7V40sIGGlx8ifv9wJbc28K8hMvLMU8nKfvSuwVL1ktfzfNLBlhc+L5m0sDtUwOFTT3uNgvLA/HlC/Hqioezgra1PkSqhkF9benR1+rSGq8PsEWfwy6WNBWRnLdAPEOLYGVv4AMnS8Iv/+ET1HdydO0t2z0maHysA8amnp+gRHm/3srw+vHg8RNrZblXOkegRb09mnnhzmkWgY/gfJVnQfBTZ9jQFN96pz1adXz/xwJ5QhFbKfERV31mUr27vUEWVzHhb2r5kVCq1BNs8WTI4zu1zkzhjFKzOnPHstZSX0KfOTyU5NobwQI91pP97mEnF1NZNGNtNWTJs4SEEe5nhTo1z5e6op5FflfIwK7L6NaYoKxKd+rtU8RgSS3keqOolIdgroJu1yVF+CSmy1FpePcqAD/TZWSZyMioB2rChlYMpldIervzqzV76P16RFGcePvKFXDx4DA2l/CBMegGZ61XAhiqBPv7loL7kx/UUFaq4tDFCu6/bDjGrKAiyMalZskdii8avypeHQfW+n1RStoUjHbcP40qMrHdfYtBSlgwlhSWQ3ZmegjMPwfT6GMPFsg91AGGVSscUW0LPirlUtzWUGqu+5nJsIdlDLLLVjbSe9u01HlQqYjm+ipKtWhova/GvhyjD40LYryTVQbliIz+rVDLExn/46SaAEa8K3svEU6Wp3leJ8Str4IwZBp4i2cIfxcz3JjayX/y+JGFPyotSB9hsH8v+epRUMTPrQvysUkiXMh3M/0fvzZGOiX050tJ3BArKmBrjxWerAwNL9hSqkwc5BZ5tIk/h/3q7HlG0Hl3pmHuKITvw6+BWjReF35JNWVPrkwAvfq77TdmvduZ8niKU9XSs/bUv/XX7K8SIGDBL8vByuUp12QIfhb1PZOWENDp8uP/4PGXoI6anY8iz1dhKYqPjIfbXoxL15IkNokchvs5AjoT2fS+mlpwFPwYrn5q9T+cJqUGxkykMNtd9dZ2BHVTBrwpTbIHK9C1lU1XgjT1VchgGu/iFG5WlXAzsSkWqKEUwH07Pg4P93JmRWdG271fDMOBOWUmYeVSfSBtLXky9u1VL903ZGivdtDPxtxC5LOu4XZVsyuF1OZlUcjuS2qz1NNIm8CYcPqZe3PvNEFbSr0cJUTFz7K3jKqcrK7ilodRZCqZ+wS/+TOXLFsGdDXSwX1nMsu8PSBYu66ATKFm8eDgxLhWLnaJg6c/K03hVUcRkKSxRMqaKkekwHXhg5nrr0Okji2WZsYVnlX8nPI1PUkJ2tLA6ZRslAxWPVVYgx8vVXjSPIbiCXwpPRlLY2dW9O2V9jO4pQu1Q8JA0nvvMizGiXELbSvlWdh/eTB4/bWPVGPVYXM1W4fbkdpaex9WWD5PsgHdAITsVqlJ7tqiSEZ393Cop1OEpZEYlxpOKOCm7R5lXNj+XE0LY+/xCZX+5Xe5SfWjKvjyMuZWG7OQFDxRj5CNb+E4yHiWxHH8AKXxg+ijIpSTzYJOQr7bZOWA/deLBrNT7O1WMGVIyIQ9IrD51NChlPtie3Xv/o8WvB8roI0rGTkp22qXctJGUfBTJrsPxbwlpPNArPVdj0nMYKlgs9/UBgcg2ePKIqU6VUiv1YFWP7bISwYfj184E0dmX0TuZm80w0r7LhpncoXDM9trTeXOqRtW7v6GYStb+Gs8i1ZsfK+00jvYlD46wfCsrxWyeA1q9b7gg64+X7Nyd9ebPL2S1HOkcsf6rMsfDja1RvcnisTyrc5BVRSWJrLRujKV22K/jP8kiFF6qh+y3ahTJsldVZPPsJVUHf5ul/6mzZaULP/k4PV2xzsbUWxFp+2cWrdQZpFkCKoRxCCWEkD2Eil/uFCoUq2jeC4YqBCs8UezCv11I54+xCqHyja1JVqAoylSrxrtjqsuz31oUrzNuPDpw+RXyFG3MbvttvTsx2aRGxZEyJGGaYRj6vpcbbTkPur/EnzFvsjRk1Sw7wDwwjRk1mQbWVXkpLFI41batxW7kr0hsqV/saTZ7YWsJRm2BJR+wIsmTyeT4+FhwsG3byWTCHkPTNF33iyvW9/1isZjNZtvtVkm4BT4wPFRP7xnDz0oJ/C03s+Mc9UHAGc3hxDc42NLsV/WuHa9CrJxuHPyPzzOGhlJ7OU+pivHD+HgKH1jsXgSUUKz+YYUhj0OZKapiZO2V6uisSt4pYFZBRiL1yEFCfhXAOj8//+abb87Pz0MIbdtOp1Pc3I5Cmpi22+3d3d3V1dWbN28Wi4WsNORxEWSEeFuSaoI1LJ4o7R3/2mmVWDSRxGMaDzgHNK/Ul9aaHZ+yNO9LzGEfKgh+ePoAEJZldbZSO/B+MNrsyzAuIMtSquzcbBXWguP3quQKN0rllAocb4L1fb/dbruuOz8/Pz8/n06naCNMJ+9927aCU69fv/7iiy9OTk4uLy9vbm7W67UYKFg17VKtP8D0fqAYyOcdOulxpYotI9vI8ab1zlrUmycF+woBD6y35BF8iok7ZYydUsn5uMkaZU9KwEjjlL0nvKl7W9nnUpJy5vP527dvJcgwnU4nk0nXdeJBhzRqJC+7rjs6Ovr/5V1dcxy5rWXPh0YaeUaS5dTuprZSlTylKq/5/z8hb8nbOk5lvf6QLEuWNNJ88j7gDnz6AGBzRvJmby4eVK0eEgRA4BBks9kHBwcnJyeXl5efPn26u7t7fHwkpRpzBuyvQK3543NFoNsGjdL25rM06g4CO+HjU8SwBtxpAqXTz70F+O2QTagr851fgRqzFJi6Hka7flVPFr/KcxeKEbcuuXdlxpdzlgRqtVo9PDzM5/Pz8/PJZHJ0dHR4eCivf8vjL03EBMJOTk6Ojo5evHgxmUw+ffp0dXX1+Pi4Wq1U5l/hM4YR/W/+Ze+60CPUuapFrHSJpJAk5/bSMrVbs1aFkmNW3FklUiq62dloVLF8pzztjcRwoSFy6zKrvangG/vl9ZU2j27WeIs7yNEgZM2o/HW8KZs6krwQCFa8nbiRIvaOrMovFovFYvH4+Hh+fn52dtY0zWg0onWevD1cv9frHR4eDofD8Xg8mUxevHhxdXX15cuX+Xy+XC7t+7bJWNIVqXy/vnDOeUBb2qhHLRxgvmDTK2Xl9o37L/lToYw1DU1Rbd3sLe1HUYe9KAOL69bJ82z81/YcniaMxVRCsptlGzVHUuWc9UxhGlqwjyJWaKLsPWW3wYatRHgaaUF1bZVdx3ZrZ5I2mfGSGlUr4R3lJsvYYhaZixVEda1hn2xa/yRPoH8tofNHcS7MZRVstVrN5/OHhwfJxU5PTw8ODoibpmMppX6/L8nadDqdTqcXFxdXV1e4KKZPcnUeGnlOJ+jv2uOD1PbswuCGbWQz9UNz93o97NqCT0coaTWJfhVDN+3PtGD5sqgkDI2ukcwRyCIfjARE0og5CumCNVLTPlJCa+nyKo5Jrhb2DnYryUyFrcAFUS25/WgTH/opUiFiHgmj96NH9QReqe0Y/X5fHrfJbhUX5gqiqlUtilnMQoHJtzslp5sSJuIb6/Va9kY8PDzMZrPHx8fpdDoejweDAZ1ogs7Q6/VevHhxeHg4nU4nk8n79++vrq7u7u4Wi8VgMBgMBtSDyookoS62RkjtUErx2+ybzaY1f7Q45Vo2mfCgcC1sA0HpyTnK4BUxxCo2wCxSuKzIV1wvqR8ZqGR58CTx6MIt05hZeSFUyrIl83F2V+tK+XcldKpv1MSuVHaPDFsd1+u1hbmoYpl/gZ7F/nTAYdrOJefz+Ww2+/Lly2Qyefny5enp6Xg8lq0Vkl3S8pag0snJyfHx8e9+97uLi4uPHz/KjHKxWMh8U8A9CrQafQnRIj4yfrS+P6R1EhiOQiW1e8Xatxx7lWrY0QypMLRGonZyK4/2bspZpggRKqmQR+T2HLAwGluROsvgfRotC3x2IqtaNtP8XVk9va5yiGIhbTPc1WqV2tspIm4pcKdKeqKdlYmCAgqw2dJqtZrNZpKLnZ2dTSaT8XisjyY1FdBaTdOMRiPZBDuZTM7Ozv71r3/d398/Pj7KXjPKeHYiaq5QRmiQPPDCooRftI0L8VKKNUBR22WMw7DHzSYqYcE6aHHayx61iAUaMyPT++TKZULwqvfCmvyLBCsU2Nv78zaDthyeJaKwIWXr2r+eyX6C2bZcQFRvl4C3+bUrQKerlwVTtu7BnBG5dmi2i1MJ4ExLLhaL9Xq9WCweHh7u7+9PT09PTk7G4/Hh4aGCkfLR3DOldHR0dHBwcHx8PBqNrq+vLy8vb29vF4uFfUt8J0Qj3y7Xcp4/quHc9AFjTEuifAV/ikY8RED6Ke3l0xG5fNw8hZxvJzggA+4tW2d1GlqsDJWiUnlli5Hpjlj7kfUQAq+n8H+Kwd37OFqjte0gbZsm3NnJjZ9uZ+TjOrn+Xa/XsrQvM8rZbHZ6ejqdTl+8eKHPKzAoFKFkH9lwODw9PT0+Pr68vLy+vp7NZpKi7tGbnSMK0cAGAIVuZwjhllwqHElTjszIJ1y/p5yFkBs9r9BKJGTEOapir8slC+3q3xwsort10VMjBQspRjJRarlZY9Lwg930lLGn4DyFMuX7nc0RQiXjBsQcMZceutHJxpaJXV2KSlo3KEuevMCJWtGSy+VSIOzx8XE2m93f33/33Xfj8Xg4HGoiRl+clEYPDw9Ho9Hh4eFkMvn8+fP19fXNzc1sNlsul3m7FcNazAoT6YUakY8NcKYgd/VFAfJsITF6015Cljv0hpS1eIalfUq7aFgraEVfIcZocXGHSOVMpssLRDAdldGSqoVU0bMxCIItFuNpB2gTato1UbP9gkNKSXUkd3FxnDpaTET9SDFAIJW2Mx3yNpukdBpQiT5hncySE2pNfNxuLcMuXVsdXRfFm5Z/4y0hud7ugrVGohWGrCpzTGSCcVq2A6GeTCfv7++vrq5ms9mrV69kF6u+WmQjVzxE1v7Pzs7u7u4+fvz4/v37z58/yx4LnFHm9uptKlLUjwoCX9fv1Q8o0txecRsruCm5SBPMrTBUsO/1rzVcpGfBNIi5FG+kDvmZ1T1qRTvV+gq6oCuV28GRlzeGrDBNPOIpW20X+ZCFXbeLblZiFqlvbzZmLk/yu5aMCkd3Kocx12NTnGaSbK4/FJpz7Wz7qL5uJ0ktmU4ul8uUkswoZfPqdDodDoepfVgDiiEbKYbD4Wg0mkwmFxcXl5eXNzc3i8UC1Veoib5N2UmqUev8Cdy0lqBvIlV3bRvxqAxh2rr7L4HXrjLQRUQU2/u1hScLURwWhgFE2HIA7CqPewebKOP+rqi0NxFu7qS16xtPeU2vU2s3Utyb6FRarNP+kQUsSNlhZo+BROFJNqne3d1Np9Pz83PZPCErYpSRYHPD4XA6nR4dHZ2enr58+fLdu3fy+qTEgiLXTlK51DTNoDx0p61FEP6TZ7hOEq/S6apMx1z8wghX0+wNWJbKu7SJEGf3xms7wSk3TeLtmibsSpQt4oSF0JYWMmzgPe/bvIXMaw96CviiH0Zlom2WdsS16a1tK7UHMBrGUhCDWlhmbdHCdKemev3w8LBYLGSDhTyjnEwmh4eHuGG12b4EjuNur9cbj8eSiF1fX3/48OHy8lJfPErma+GRDAVqmuZr/tUJEGoa7IwC8BXEKvulhXb6FSWpbNry3wl2y2XKvkXtpuJwSvdppvDESC5IpTCNrVBHIJS74IWiPkXO1B669M7TedqbnaJaKC8Xs81R9+n9aPakw0mCoIsatS1KL+iplroS2qmmZSWSyAvbcmc+n5+cnEwmk+PjY0Ext0reZiqDwUAeTR4dHY3H45ubm5ubm/v7e1IwEqOTvp4/QfaNHLEzBgoSkB9UBiQOfTYbR5krlc9ePmXjJAMVmmi8iTAhlC1AjWJzKIZboJC0EvRYFCi0TjIXTIqR2dnd+/1KxVwju2LvypnMXpDTGidqUQOBID5SodxowXMK/RU1V26RBid8uLdcLu/u7pbLpTyalA0Wx8fHsiKmAy16qdJoNHr58qWcxnN1dfXp0yd5k7zzSLUCSfmvm/0jRkT2OHCpq0++CjJZEe1uQC1JeUcEBwQ3nfJbr4okRPwq42MBUPbOGmy7ckdzb3qKmtvf39YqZRjC+3bPKtaV7tAnPIVew9By8SWZ8KPEDfkgFrhaoAtZ4d3m6GYNeLlEvUPt2rrWq1FlKqZMUEE3CpCn4o4iSKVekcOozJvNZj6fy1zy/v5eXpw8OzuT/au6Xx/7Qp5ii1+NRqPhcHh8fCwvgV9dXV1dXd3f38seiwQPTK2CeAc9pJH5Yz0EWpjTf9XKmrgmczyQHupA3YAMVTKNT31RtoE5jistsnWL2QIaG+RACBbJBFjkmlYMUTnazu5yiFpRzpqZ61iiK1ay5KHLq42XUiFDi262O9LWF9E4ZUXcMCNCQ+WccZqDPWIdhpiQItjvCKbo+q4MWB61iJrWXZ3aC8gf223aZHXHrm+6toOgyrauugHFObmWXtjowLZ0eoh7qlar1XK5XCwWcoiFLNIfHBzoipgruYh6eHgoB4rJ5tiLi4ubmxs5U0ymujpAuvu6qLsTPn+0VnO7TS2FyruFraO7gIhSuo7ewLYmV1TLk8QrAwc2VFChrCzJZsG0RgDi7Moj1sDw1nVQLW+PNq+R3Da0UxUq3AQzvqi5+lb2IzRIWbUMOexO6keNatO0FKXC7NdNhESpPWPAoa7mlEG30RxMVtbrtZzFOp/P7+/v5/P5ZDKZTCYHBwfkiiqJXMgL3kdHR4PBYDweT6fTy8vLq6ur6+trevHI3Qth5RwkMzWwUURwoPeTAbJkvmNmUcyyKpMVzHa5kIvQlnBEIh+in7JJ0VMFsosFcJ/trvEZ4Xgyszx9mK1SiRHksHN3R3i5FfxJtK6PYRzzU12mJhe//hnEKfDnJwKWJcoj7JiqP0UwF5GWx9iufKv86SQnWDw8PNzd3T08PEyn05cvX8q6/mg0QsQkr9Dz6WRRfzqdnp2dyRHV19fX+sUjDE+dXlh1vn44xJVyv4HRQh6lpuUBx/5KBaK9F6mN000wBeiENvcnSmIjyjCbs1KVK9qUzVqsaZqjo6Pz8/OTk5OU0nA4/PHHH4+Pj/v9/o8//qhnnnz48OHu7m6/XTZ2TKp3A8r7XAir747noj1y4WdplDQtJHQZZkz1aG7djMDiiQODKy0GtRyzIydYzGazk5MTWdeXDAvf4kgARpoVppRk174cUf3x40c53FWWjFzvJQf7uv8rGaQUc0R+bAcQV8PUNiuWsfwjIyIqZVjtI7MK2fdOLEX5F8pmsw96NOHyx9UQFekpGSiZqN/vn52d/fnPf/7Tn/4kKw6TyUQODPjLX/7yxz/+sWmah4eHv/3tb2/evJnNZjVNNLCwqH6PKUPlMG4T5Jr8q7Lw85Jrf3QD8uGnNBQFlBhW93Oi5esNnmHtT6NMuw9b75SzfpQlJNJ3v+/v7+/u7k5PT09PT+WwQ33lSNIudy4l5/DI6r587kjQUIDMKog0QLGSAS8VN3vrhVY3uaBjRhB9Oq2jdtTJToa5WIKlxKh1bJdERUkKWVIZi/G+PaJHjSbXboFmm0gjNzKOtRXyH41G33///YsXL9brtcwT5YMx8uvFxUXTfhsxbVearU3smETCoEZNe7ZCEuKQYPWi8gRe+Fy7Mafp7kGuu6cYkbEh7CkXyMpSkcVczgmUTeBIbsYU6UK4j6MyjkbWz21vNsFzA7fXEiRfebv3QNb16QQLPRARG9XqKme/35eSkovd3t7e3NxcX1/LObGDwSBvDy/S7hNk7P/1r39Fy6L0uIIjRNsdbC+SzmhNzJjId90uIaIyzXbLL765miF9wO4py9lsV6xcO1jnIzFoOLUN2X/Rnq6CVgBtRTrl+Pj4u+++Ozk5wcV72VSxWq3evn37j3/84/r6mvNPakoAABrhSURBVBa8xNtsHFIYWK0jIKCSGgNlm1jtUjuotHO1rn24XraSVUFvUtBSJ2KPNG1Kbb8lViQ88rdyomOjrdAaWMu1YbP91plKRVaKQolcLgOUoCdEHacwp6Gn59+nlOTFSQEy2WrftB9eY9cQJsiZiLLTVU8fc3XRO4xf1nvcPRBu3yifDAOXhhbaV8nesWwJaHTrE27UQCWRZ24PoY2JltR2dGTVGXjkcGXwola077EzXFOQQfS9kMlk8urVK/wQvHC7vr7++9///vr1a/u1Pl1hod6xArs2wZ9sSeRpDdXJDaEKhSEPISu5/2ZvUcKK51rYxSOyT9M+6QB/0pBTGaw1kvEWK0bhVSQl3AOod6yauT1MKjah26CmGdKCyIykhaxjSGzKfcEveeUIxSuoLNTv90ej0dHR0dHR0Wg0km9QYowQ8fn31H+IVm6IRoRGxL/k966rYQGqoumGHJBWaJ16UR/SNe0xs/FytEgkl+xgRZpGhGiS2p7hNqHFVqvV58+f37x584c//OGHH37ANYX5fP7+/fvXr1/LZ99rFCFp8y4LXi4VUNu2S7Ww1zSVU3K95SmiuqRx7vYjdrfVVMXbyYVqyPoGOQxdl/uRxvgMyaZWt1qgQRD1SPecs8wl5RNHcnF2dibHV8g5POUY6ff7R0dHvV5vNBpNp9PDw8MvX758+fLl9vZWD0SQv3z+KkmPWLtflxD8UZxYE2OLyAFZdUYFtpK3B8WVTVbA+J3iOUNKWDiDKRIeBXCzIVlKmM1mb9++ffv27fn5+Xg8lvvL5fL6+vr169e//PILnnuB/FMbESJL7gcKNqpTVyRLYZtuRJH5rYmSFEIxV0EbLCkl2rG4K7l9Z5fGaA03w5mIqILLnyxMP+F4j5piIFPI2IbkE0fytpB8q208HuO6vruLQGd+/X7/xYsX4/H4+Pj45ubm4uKi3+/rZ8DFGi38Qih1YXWnSHY5dNZyXSQBMElkugWwIQwM2xNNvLvSBZGdFHe52ep7nA2QIJH88uXLTz/99Pvf//6HH36QBP7x8fHnn3/+5z//OZ/P6TFWs81ocntZB3XcQ5i9yYVp/Yl6JxL1t0YEB3v7jK3btJePlSJswn91UzuSO2BoE7iBsTPH1P5SkZTVcDiUgJXZwHK5nE6ncriY7HTVKScKRuAofGSpdzgcymfAl8tlg/lXhBdkiwhckplgRgMIFShEC5ZUCLA3LeBKMXz1h0YhDA8LLm6vuFpH0Ib8o3GbrJGCodLqq/zn8/kvv/zy8ePHs7Ozo6Ojpmlms9mHDx8+ffok37+yJiJDNduFTtK9EHV7xGShvDWvmi5yjyiG9xtm6gfUqDD1qXWb/Qi7W++UH01KFVrwsU7emFEtb1eKcFKZvK2O7khDvyo3Za44KBsser3eer2WdVvLE587q2oy55CDYQXFtMzXQ3w0vRIz2XdQFBexSs5ZAF53auB+lggmkA+akkKUfrW9RdZEs+qqkA1jBHh8xpq2Iw/1pcVNrIvPOlUvKzCJKjse7CMIS1ZfBejr6+uffvrp1atX33///Xq9fvfu3b///e+Hh4emfQC05aPcsllmzmYPN5qXXMK6r+vTEVkrkQ2jLqab6Fe2llvRooyUoWyFfEnv2ztk1RRsdbYYlL15gKuFJdsplbrjtVZH7EvtlZBOKjuM6LjZbORVx9vb22ibG+EXstJTYRHCBrb7Scls1vZcucnt7P4dG056Bx85aUPoIm4/2Y5Bhmo4W7hQMcMMn/oS20UEtP5X6Xn6FJUSsTJl+IrXfD5/9+7d+/fvJ5PJ4+Pj27dvLy8vN11HPqE1rBmp15LnmtEQkjz3cGOYNrgk6Hp8VN25fdwN/nrZ8H7Ua64YnUaLbkYGL/N3i0W6u9ws+LrFiKFb0u3igvWw5Gq1Kj95cx0mmRmMhswAexFr4khopcGoVrjJ7e2aJD1GfgJ0p71XTXuqr4BC7SZjR7tdM3lxiKxUeBcZUSpbJaUk0zQyNJVR2axZ9FwN0s4SGU1S3X6/v16vb25u3rx5MxqNHh4efv7557u7uyaevzRAkRmjdRabrVg17U13GVtyHOxiyUaxOu0jQ/5lwbRdq7stVri/E7dIjEp86SQLEPUDni0c1a0strcktmQlTBf+HbhOjEUpGSFc2LS/tSPXm+pP9WDHIGIq2FETqrYrMO1IQDkzEP2UgsCmim4VKiw3XQiwJPiVPKhFK7n/Sgqz2Wxub2/fvHkjBzO9e/dOsuvcPo6GaiUza7AlUZgyGto7nf5N2yzJwZSV6+41Hh+5R6FTaJisr4hlOiGsMDFHa0QS7icYDdvlVmpob1aRJ1CZGv56c5DbSwaNycL0msCr2a4XpO0Q2sCaNIW6OqhNkYgIKFESQqWC4RAH3V91+p1huRFnrC6suz8hH8JBK7nlI+RCHqqp4ik+SvYnECZfqZrP57Isutls5FRMItpHIuQinQUmt0ANfrmk1Wk4QZtEezhr7nQanMgOb53cOmVz0cot1sltJ1DrLFawRrnvylDyjGQTiNR2ua/4Vc8RhwgMAy0TrclZmRrI17B6TesFomUvxBRsF8NMvRa1sxmfMlQtdI2/pv8a8zgiQ5qpD5KjwTlvHymgNYTkiYx86kre+JeXxSJuitGqSw1+RUrZOzUVyR3ro8tlFcVhpyS2T6P4RM90B7Z6soJFFvimtHcTzyub3WLtojkOctRZfP6q7RgcmnBVwu118qfGPKHHnwhZoqZJjQbmPpZtagenBVlst9keVoFbsaKVl9xO6BS/kglIrEvQaY2gjZZDAgEXZcA3SGTAlzMzIyhEgS2+px3j0+0yy82WcX/SXkOHLNeqCScdn0ha61oFDp2t1Bdza+Hw2VS861Kp+H7C7PRrVKVg7Z24KYBID+Ko0+j3h9SIulkDAwaPfMBj1/VCjd60nzwi9hFauXKrfPKsVCvakoWAt4FKTSPu9Lbfx0ZQi2xtAdcdTjtBjYzg4p0tnM17tqQsPfi3qE2/Rr1QQxEGNfH6Qw3DZyR3fI0awi5zWSG+1Mvg9iZxqNyjUBCbymCQYzE0iOuQ1mI1HhLBkJWtpm40qqnMNPSG7z9GlM1Kp6zCJA8ysLEcLLW4spImFq3cDqAAdgs3ZsW6aedcWNJ2OblCJ36lAKfsv5aolQyL3K7j2uuIodtEBEk7UQ1YaIt7/OSWpFbISjjg4YBqmdS3W4Mmz0g7DQMu+lC2UVa2gANPwa+aVuxNqw7eGbjaJhP/CfIpatLiF0KVwpn71/K3cuNMTamw4K2OSzGvZSx+RSIR2GNI2ADAf3P7aUON/0V+gELuhE1WsE7nqxnAnsI/qvi8ZLeS66CL04snIrWlZ2e4K3MCL1TT4petTj5fdsiCVJV2cCUpD7EEQQ3NH12iyLGDvyYvyB1PJtKKehhjagMK/WsrRo26qlowSm1oi4APLzrHqMJP9OKYK08N2U6JmOwXOejTT+HzWyPxNFwToEPiaFj6z0pbSfX4hbDVQMqJZcoMowIuqNWjVU0xO5vGbpJrfDXQ+f425iMYz2k7B6Qut9sRU3v/ISU4ZfxCVlaMMllVlSpZFTDLdfqoV54LCCiPexae/x8ow6JvhqM7hTAA/qNi7k+F/IgGzgwvhHUiV2eZCF8qZaY7Nfu/kBozRWt9/htBRxMotYLQcDi08y/dPJ08C1rUcOOfMrimvWsMObgaNjAxLI8t1mSRgWzd9Ks7/X9HTvRrkr6kgrmGepcW268f3Vq/tT7CPEWXd2ysYRU8rj2yUhlciGqAqZAuVNJATo9K8OZqNN/RxKow/8JrlwMxJ5Uwd3NbL1DZuG72VNNKTRZdxtZsVlsiYQri0UnQlpXyx8HD7SmSpNybyrzT/jT2oBvYeLARRXl9jdkjNaXkE+OHxuBIqoh5TaYj1Pm2fGqnkyh5BKYZUk7KmORm9Pg+ivqmvfCEAwPVjeypMEo3RQsJefwiBEnlRlzTNIODgwO5hZuJSMqyhtF960A0f6xE32+d9UQmi37arwkXwtwmyhmiikfORO7VmSaUVdtv1MWIQr+vqdspUn1FDa2atQIbGBH0lEdHG9KVdivsn0CGtKe6HBQ5Z8ECBMcG1sLsxtEIDV2R7HXaK5mq7PEC5wEdoV1TrUbKcp5FrVDFetB8LipA2DdqIsPU2DbauSfIxa+0S+i6UtXfdANJV0LtsGzlJ857eH8krQtnbmbhvn6f2sBRk38htzJ+1QxXWNLtKf0pemVFMy+Sodzv5ZS5rMV/igaV3fONyO3jb41W35o6zYi5SQQWURZgW6HMKxnXRyLgKzRtK5Z1wZI6FuqFO0pRDl7jCTWyufhlYSKakrtMGvPknsojeEX2r8zISGyXYdk9Cqj3H6RvEde8f/XZG/g/Qc+IoZWjrjtBa9pPu90EwaKVbQiZ2EajTKogvy1mVVOoou1XBFIIBBSEu85fkGGhTKSRu9ri5l80qXRnKsmgRo0b6P0CQ8Kg8ghUk47sdN6c5U8DTyWrzgWN/aj2/e09GnYdC/VPxUeTe7QYiVEuECFO5yKU8icP2xW/qGIGcs/wLY+95TLkc9m8FFEAPlcpRJ8NfPk8meUwm2cRKHR2cYREbkkEnWjxuMxBr/Gl9+Q57a9GatiyHQqJLQ4qljN5cjJdT3XLTugO0tgcteUySUZf1Ovr/NEdVdwwKAwvaN/CqKhiuecdumIgw2jmZb0KgbIcJ9ZA7uhH/9qTCUhUt4lm+56pLa+wpUsYFGYEc8rQTRyS6Sb1v85lY6pFr+6TbwhP/RqzVsEyuCHLBoB7xCO1KGc3WnVc+alpPW2tQOh+5Gx4J++7VEd1EQ0p1DGOVB53MHBVyObpJLXlBm8kqrVnasdaJ/q4/0bly9fUO6X8y40KVxm6gzbCMj3vixU1p/3l9p7DCCMiA7nOQQVIMHsEI66GIoLginUBuSh4SGupqKrpIat6QVqQeaNG6YISItXLrWW5KSRFmxgFI9CYGDAkj+tdSA2c4r8BcsWjir3tV5rS1vidEVt2QpLW1orsZqkTfdxfo9PECqISlll/sIK58iQYsQoS7kEimKa3nbkFdoF4wkAHNHcoo+5B4CDActsoRJeyxXYju1BbBZ4NpDZulSY+zhxjjPhYMdybBfxyW8R/NcwEBfCVl4jqYyYqHwlc7oidmnuKr2c40URFRSjplAerkCT4LmRqxxKRm8vQT+Q8kXguuFf6fxTebmGyWAE0tZYLzfUAbU2EABppROpn720BK4Nqtz9+uQK5N/UnFxGo83aNSZI2gldszvaTDtcFUV1CVpHkZXNlIMq5auLzv5iwKykacWbq+m0yrhud64/gFYUAglRqByrFHjF3Ncqw/YpOxHX5qAzqvQ0shsT222ew2a96Df5SYCaId7GGwNZqtdIJB/21oZ1zHhTeBSPLYjULOp1RGv1K+kTFyB3dwq7aNCzkeDRwsY/I9V3i72phS9ISGOZcubg+9ZsljP/I1JVEXUCGJfByXZf8ypbBOWYlfhG4lLWL3EOXJqJGC9kKQlgkAIX63l2ATeNfK21nN6X2K/T6a7M9jE/xa7lcSkaFIanDOWon5QfUWCQ9/epiSjbZTSd+5XZyWEAltFQhNkhJhVccsgrCFADIdQjkXIlckaj0jvFOrH5T1HStBtYTmUitXcPW+pULE9FflyG6Iv2t1DTDMx91SGrRsrL5F+mIdfczu42LBh4oZ5jWudLSXwp8wSCEIVRfIAwXT4jbarUi2fSBzIDYRVrZ6EVT4q/WEFETFoZcB9Jisr07e182R5GwC13fxYrkfDUdj72Y24fld8KfvYP4RZJHdaNBojMntb0Z1SpoTeK50UtZmBUmUsHeoQ4lJm71qK9dh8GLsims21CVTksWjGb7pdB6VCbBUyYymluF5GnMtBTxK28zR3z3SO9r6KEADaxdysQwgUtoW4hfaAS6QMH02OSBfk6y0LvJOGLyUIacIEqD8Zrs5abTajj5OEXaQnKqIBUbOaM55BoXAQs+ZNniRs3Oim7kK7ecs3sGgF7o/oPGLDNbRKBGlUPUBUrW/kg6crjBsFqter2e9tF6vRap5N3s3D4+kNgSOmgA2IGBEqsoLLHFeoy2JV2sQYeh6gU3sPGZTTpPdTWm3J2Alj8auSAJpR0oTwIfsM+mrRgyb9AXsDXPStsPpOpxIG6uoG2J6eiYXCmpa5f6V+08KJubvBnhxjUfJWWR35Qjx+0n13YFiuI5EgYNVKhYz3YP6ozMAhWsvUexTnLj3EKMBgBtvECIITSkujXba1yK2GIB99otWcgoIywo77Bzx4DkBYV7361exqxk0Ba3BK1WK5wh2mFDyd2TKOXpsxVyobtqyKUp3SlcW/xSITv232Nsp28cvap2NAau1+vFYtF4OxtSEXQKLVrIiBzr25HIgF+fFB1r8BoFtoX3jnxXyHrss0MOyYlDLhoc+WtdTXJd4IgIYcUtGdnWIgg27UqrWqBGriNhghbZ2RWGyhewr+Az2DRuqcs5K37ZlIX6TkFKSsrESMcnUlyuEYBIPPLeBj4nGFlJS+acS/lXMohY78GVJO2i2u4xPmnrRhvzZUZbsrLR/X7dg2w8pPbENsEqgJRRNTdmx3lup2blIMxmUr+rtCqzDR6N1dQeElUFDOnU9sWyIxV80ioepUsUdS4rF1/sHYsptnVUlmLe8rcF3G7C6tFuRPemBQtsUZxKtxnm9gM+0jq33wZZr9eCdGlr58FgcHh4KIsGpKC6rj2fGbtGF+NlHjoYDIbDIWKiTUIVi2rzr2+XeeUtoosC1l0ktgeDgegjJntKc8hZbzbtmW/aJebrG7WqYW5rJSz7aCE4sfDTBx4yiOWWg1ep5F+3T1M7zCjSksFEq2wZm5Ctm7C76a2V06qmUGVNVNl3Ft3KDF0orIlHNJ3ChK5S0WadKEvNkKzp/gbUQmJT1z0JcfR9flcF5SwiNdu5iJ5nic5jOXTkXwmgrvGW9GzJ6F+UgAYWWeFDg+btxEH0Pzg40IcUyZzVidZ023X1t1mMm2W4fMoUaR1V13ZxCllGHDcMsLwdqZRnJAzBN4pn2VrT6b8U3g3QBjYb2hwhtaecqestq/KYisZxixU8mdQnZdHm2Yx5Fpv2IJLcMnQ7seD2mDoReFHhBF2G/2Kj4qiUvqGtMAtzXVGlwkU3ebjprpxYxxM+jF/WBOReZY/pjHDbnKxqLZdLSaw2m83j4+NisRgMBuPxOG8fNcqkUq4V7GvasrKRHTGQKuV3qTMhIutpi3TTZoLUOv6qPAu1LAdS2cYnylNmhcUw2DbwqV1VSv2eAAgrkkYEQ1ReJbF5kzV4Mi7hKkWOQe2S5NiiFbhsNCH7KJnUpIrkA7YuCi9jhsCWpAj0HrsWSx6E4bXe0eRIeOacl8vlYDCQj2BY+bPZY2Q1bbbLXsJQUcwtn7cbX3u93qDcxzjWyZ3O/Isw2I7e2AE558ViMZvNUkrHx8fT6VRMPJ/PDw4Ozs/PN5vN9fX1crmcz+fL5XK5XGpbtuNRElTeuhp2c7N9T5gAztayWiTT61YYV/1kFgUwmLULIybutYYQyRNhEPpoanu/LUl3bCalTPS5IU4ckHNh7wt5f7Nd8cT7m/amJBVAb7o9QlhpAZeKEZPcflpH1TWcEnSfCzGqpl6oiXCZqew/JIZrPbT2crkk5to1VBdVI3O5uvR6vTUQ1VLOsrEmOi1WjZwAzRG/UCQ0bNO5/pUgtBqTi9nm3Z+soKrkarUSYDrY0nw+R/sK2D8+Psqse7Va9fv94XA4GAzcr3lbBCnDkMpT1o4Y6rUuHGg3l3UnAbC8IoIuB2hXRboQ2yhabNN7/IplchvrcXCWCwxme8wpHRxoAddeEBDTvxSK2Hoy2VNq2wqjIkG4pnYkE17YQMU79jEcaYp1NUoVYqJetvhl+dvqxBY7y/JvIIu3/DVpwL+5veNMyB0GCnqh2DZRoAus2HF+jnuzM0SpecwLqOcWi8V8Pn98fJR1wS9fvszn8/v7++VyeXt7e3t72+/3JQD0bbXCg9UEPocykFQWqiI/o5vWaTbwyJnSBFc2tyGtqO9vq8818ZE1xBkJxXDjv54Ip/BmgTOZl3jaOzITUexrmkb2KuNCp9TCTyCjx+PYTviVzFK9m32oGFZaJCkj8wD0BzR+lEahW9K1Mpf7bqpi49ktUOgLUsre11/RwtTFOKxKAZ05Ula+CbYrKzXbNS+1fwPb8bVRwkfk4Hx/2zZGMU9gFFXBwipfgm6QKJXFrM1m8/DwMJvNRBm5I6tg8iRVNwEdHBwMh8PIIuXIKRBZOXIOqzimHlFdO6Rgdf0pw7NkarfZZteuSyF4JePHEXhFcjbeJNQthj+5A1vT3hciZCf+4gkN7P3p9/uj0UgCQ43TbB89E34lSMFye9d+Mj2rKEn4Ik3oiWNaHXNhIVmxRf6Rt0ejDsVhbpM10bOQG/9I6CdUDA24aT9eRMTptQ+5tHULTSOrBJl7A8eNJBNBtfsnCiBaqEjyWaH7/f7h4WGv15MBTbtfzIHgpaQ3a8aZFGeR9prC3tWIXLYXHL1W6H7kQx5jPQwjEMPSMrRIWlbHlTMBKrkqEEZYYFJ0UBiyD4st3G82m+FwmGDVjOqqMBQhKkkPntBbX7e2FZejVSGcamldPdEFy+AZCQnyO8LNAljYn7D8ruFG+hY4u5FomWBHY12JWSwvd5ptoiRlyOAFv03gcqnds7akjb6Bq21ZtwQ+Qa1aDrk9Gc7tObbuHNGHjA1sPT84OFBjYWyk9nhL4tleLPSZ/oSpb6cfoOMmE5CR3ZAzxl4Bv1Qk6uBkQsUqVTnuuW1F4w1eEIThTUWfaA6IFXMbvxo4U4UqUjCguTbbb00nSHw039etA2heBCYkwhFcSFYBemZHGPoPyhzZsAZEdiXXeRLYzYWPQrvqpfJvsz1DgWpRJBameySAnWKTqYXs4KSLqk7+5QaDZRqZ2AqN5iOMa2C9I22H37xdCRL8Qr9BJi5OpcDXbXkaYeg+lieIQeZYq4wX1Apd6/CVDKY0kJPKHQ1vEikyBbaCzBVxbI83QTrp6tjAmKytyAN1zaFQWcqdEf0Js5BSeylaUQPvaIqEB0BKGXy/T0jrpvYbIKS1C/H4L7m09Y0y2WLWsSupXKUQsCnI+DbevgerPk2TaYCJWidr0038VbwLzaKR8j/Ry+pscCu2JQAAAABJRU5ErkJggg==;" vertex="1" parent="1">
          <mxGeometry x="80" y="100" width="405" height="244" as="geometry" />
        </mxCell>
      </root>
    </mxGraphModel>
  </diagram>
</mxfile>
